<?xml version="1.0" encoding="utf-8" standalone="no"?>
<!DOCTYPE svg PUBLIC "-//W3C//DTD SVG 1.1//EN"
  "http://www.w3.org/Graphics/SVG/1.1/DTD/svg11.dtd">
<svg xmlns:xlink="http://www.w3.org/1999/xlink" width="549.39pt" height="404.820625pt" viewBox="0 0 549.39 404.820625" xmlns="http://www.w3.org/2000/svg" version="1.1">
 <metadata>
  <rdf:RDF xmlns:dc="http://purl.org/dc/elements/1.1/" xmlns:cc="http://creativecommons.org/ns#" xmlns:rdf="http://www.w3.org/1999/02/22-rdf-syntax-ns#">
   <cc:Work>
    <dc:type rdf:resource="http://purl.org/dc/dcmitype/StillImage"/>
    <dc:date>2026-05-30T20:40:58.348237</dc:date>
    <dc:format>image/svg+xml</dc:format>
    <dc:creator>
     <cc:Agent>
      <dc:title>Matplotlib v3.10.9, https://matplotlib.org/</dc:title>
     </cc:Agent>
    </dc:creator>
   </cc:Work>
  </rdf:RDF>
 </metadata>
 <defs>
  <style type="text/css">*{stroke-linejoin: round; stroke-linecap: butt}</style>
 </defs>
 <g id="figure_1">
  <g id="patch_1">
   <path d="M 0 404.820625 
L 549.39 404.820625 
L 549.39 0 
L 0 0 
L 0 404.820625 
z
" style="fill: none; opacity: 0"/>
  </g>
  <g id="axes_1">
   <g id="patch_2">
    <path d="M 66.75 354.935 
L 542.19 354.935 
L 542.19 30.1 
L 66.75 30.1 
L 66.75 354.935 
z
" style="fill: none; opacity: 0"/>
   </g>
   <g id="line2d_1">
    <path d="M 355.286509 354.935 
L 355.286509 30.1 
" clip-path="url(#pa8b4df5c22)" style="fill: none; stroke-dasharray: 2.59,1.12; stroke-dashoffset: 0; stroke: #808080; stroke-opacity: 0.5; stroke-width: 0.7"/>
   </g>
   <g id="line2d_2">
    <path d="M 502.919891 354.935 
L 502.919891 30.1 
" clip-path="url(#pa8b4df5c22)" style="fill: none; stroke-dasharray: 2.59,1.12; stroke-dashoffset: 0; stroke: #808080; stroke-opacity: 0.5; stroke-width: 0.7"/>
   </g>
   <g id="line2d_3">
    <path d="M 66.75 300.795833 
L 542.19 300.795833 
" clip-path="url(#pa8b4df5c22)" style="fill: none; stroke-dasharray: 1,1.65; stroke-dashoffset: 0; stroke: #808080"/>
   </g>
   <g id="matplotlib.axis_1">
    <g id="xtick_1">
     <g id="line2d_4">
      <path d="M 66.75 354.935 
L 66.75 30.1 
" clip-path="url(#pa8b4df5c22)" style="fill: none; stroke-dasharray: 1.48,0.64; stroke-dashoffset: 0; stroke: #838383; stroke-opacity: 0.3; stroke-width: 0.4"/>
     </g>
     <g id="line2d_5"/>
     <g id="text_1">
      <!-- 0 -->
      <g style="fill: #838383" transform="translate(62.5 370.93) scale(0.17 -0.17)">
       <defs>
        <path id="Iosevka25-Medium-30" d="M 1600 -51 
Q 1427 -51 1254 -19 
Q 1082 13 931 99 
Q 781 186 662 317 
Q 544 448 473 605 
Q 403 762 374 934 
Q 346 1107 346 1280 
L 346 3424 
Q 346 3597 374 3769 
Q 403 3942 473 4099 
Q 544 4256 662 4387 
Q 781 4518 931 4604 
Q 1082 4691 1254 4723 
Q 1427 4755 1600 4755 
Q 1773 4755 1945 4723 
Q 2118 4691 2268 4604 
Q 2419 4518 2537 4387 
Q 2656 4256 2726 4099 
Q 2797 3942 2825 3769 
Q 2854 3597 2854 3424 
L 2854 1280 
Q 2854 1107 2825 934 
Q 2797 762 2726 605 
Q 2656 448 2537 317 
Q 2419 186 2268 99 
Q 2118 13 1945 -19 
Q 1773 -51 1600 -51 
z
M 922 2099 
L 2278 3181 
L 2278 3424 
Q 2278 3578 2246 3728 
Q 2214 3878 2124 4000 
Q 2035 4122 1894 4182 
Q 1754 4243 1600 4243 
Q 1446 4243 1305 4182 
Q 1165 4122 1075 4000 
Q 986 3878 954 3728 
Q 922 3578 922 3424 
L 922 2099 
z
M 1600 461 
Q 1754 461 1894 521 
Q 2035 582 2124 704 
Q 2214 826 2246 976 
Q 2278 1126 2278 1280 
L 2278 2605 
L 922 1523 
L 922 1280 
Q 922 1126 954 976 
Q 986 826 1075 704 
Q 1165 582 1305 521 
Q 1446 461 1600 461 
z
" transform="scale(0.015625)"/>
       </defs>
       <use xlink:href="#Iosevka25-Medium-30"/>
      </g>
     </g>
    </g>
    <g id="xtick_2">
     <g id="line2d_6">
      <path d="M 128.495455 354.935 
L 128.495455 30.1 
" clip-path="url(#pa8b4df5c22)" style="fill: none; stroke-dasharray: 1.48,0.64; stroke-dashoffset: 0; stroke: #838383; stroke-opacity: 0.3; stroke-width: 0.4"/>
     </g>
     <g id="line2d_7"/>
     <g id="text_2">
      <!-- 1T -->
      <g style="fill: #838383" transform="translate(119.995455 370.93) scale(0.17 -0.17)">
       <defs>
        <path id="Iosevka25-Medium-31" d="M 1504 0 
L 1504 4102 
L 678 3418 
L 358 3757 
L 1504 4704 
L 2080 4704 
L 2080 0 
L 1504 0 
z
" transform="scale(0.015625)"/>
        <path id="Iosevka25-Medium-54" d="M 1312 0 
L 1312 4192 
L 358 4192 
L 358 4704 
L 2842 4704 
L 2842 4192 
L 1888 4192 
L 1888 0 
L 1312 0 
z
" transform="scale(0.015625)"/>
       </defs>
       <use xlink:href="#Iosevka25-Medium-31"/>
       <use xlink:href="#Iosevka25-Medium-54" transform="translate(49.999985 0)"/>
      </g>
     </g>
    </g>
    <g id="xtick_3">
     <g id="line2d_8">
      <path d="M 190.240909 354.935 
L 190.240909 30.1 
" clip-path="url(#pa8b4df5c22)" style="fill: none; stroke-dasharray: 1.48,0.64; stroke-dashoffset: 0; stroke: #838383; stroke-opacity: 0.3; stroke-width: 0.4"/>
     </g>
     <g id="line2d_9"/>
     <g id="text_3">
      <!-- 2T -->
      <g style="fill: #838383" transform="translate(181.740909 370.93) scale(0.17 -0.17)">
       <defs>
        <path id="Iosevka25-Medium-32" d="M 397 0 
L 397 6 
Q 397 179 403 348 
Q 410 518 435 688 
Q 461 858 512 1024 
Q 563 1190 640 1340 
Q 717 1491 816 1632 
Q 915 1773 1036 1894 
Q 1158 2016 1289 2125 
Q 1421 2234 1558 2336 
Q 1696 2438 1830 2547 
Q 1965 2656 2061 2797 
Q 2157 2938 2205 3104 
Q 2253 3270 2253 3443 
Q 2253 3590 2224 3734 
Q 2195 3878 2108 4000 
Q 2022 4122 1888 4182 
Q 1754 4243 1606 4243 
Q 1472 4243 1344 4195 
Q 1216 4147 1126 4048 
Q 1037 3949 998 3817 
Q 960 3686 960 3552 
L 960 3526 
L 384 3526 
L 384 3571 
Q 384 3731 419 3888 
Q 454 4045 531 4189 
Q 608 4333 723 4445 
Q 838 4557 982 4627 
Q 1126 4698 1286 4726 
Q 1446 4755 1606 4755 
Q 1779 4755 1945 4723 
Q 2112 4691 2259 4608 
Q 2406 4525 2521 4393 
Q 2637 4262 2707 4108 
Q 2778 3955 2803 3785 
Q 2829 3616 2829 3443 
Q 2829 3219 2768 3001 
Q 2707 2784 2582 2598 
Q 2458 2413 2291 2262 
Q 2125 2112 1949 1971 
Q 1773 1830 1606 1676 
Q 1440 1523 1312 1340 
Q 1184 1158 1104 947 
Q 1024 736 992 512 
L 2803 512 
L 2803 0 
L 397 0 
z
" transform="scale(0.015625)"/>
       </defs>
       <use xlink:href="#Iosevka25-Medium-32"/>
       <use xlink:href="#Iosevka25-Medium-54" transform="translate(49.999985 0)"/>
      </g>
     </g>
    </g>
    <g id="xtick_4">
     <g id="line2d_10">
      <path d="M 251.986364 354.935 
L 251.986364 30.1 
" clip-path="url(#pa8b4df5c22)" style="fill: none; stroke-dasharray: 1.48,0.64; stroke-dashoffset: 0; stroke: #838383; stroke-opacity: 0.3; stroke-width: 0.4"/>
     </g>
     <g id="line2d_11"/>
     <g id="text_4">
      <!-- 3T -->
      <g style="fill: #838383" transform="translate(243.486364 370.93) scale(0.17 -0.17)">
       <defs>
        <path id="Iosevka25-Medium-33" d="M 1619 -51 
Q 1453 -51 1289 -25 
Q 1126 0 976 70 
Q 826 141 701 253 
Q 576 365 493 509 
Q 410 653 371 816 
Q 333 979 333 1146 
L 333 1178 
L 909 1178 
L 909 1158 
Q 909 1018 957 880 
Q 1005 742 1104 643 
Q 1203 544 1340 502 
Q 1478 461 1619 461 
Q 1773 461 1917 518 
Q 2061 576 2153 691 
Q 2246 806 2288 956 
Q 2330 1107 2330 1261 
Q 2330 1382 2304 1507 
Q 2278 1632 2217 1744 
Q 2157 1856 2064 1945 
Q 1971 2035 1856 2089 
Q 1741 2144 1613 2157 
Q 1485 2170 1357 2170 
L 1357 2682 
Q 1472 2682 1587 2694 
Q 1702 2707 1808 2755 
Q 1914 2803 1997 2883 
Q 2080 2963 2131 3068 
Q 2182 3174 2204 3286 
Q 2227 3398 2227 3514 
Q 2227 3648 2195 3782 
Q 2163 3917 2083 4022 
Q 2003 4128 1878 4185 
Q 1754 4243 1619 4243 
Q 1491 4243 1366 4192 
Q 1242 4141 1162 4041 
Q 1082 3942 1046 3814 
Q 1011 3686 1011 3558 
L 1011 3526 
L 435 3526 
L 435 3578 
Q 435 3731 470 3888 
Q 506 4045 576 4185 
Q 646 4326 758 4438 
Q 870 4550 1011 4624 
Q 1152 4698 1305 4726 
Q 1459 4755 1619 4755 
Q 1779 4755 1939 4723 
Q 2099 4691 2240 4614 
Q 2381 4538 2489 4416 
Q 2598 4294 2668 4150 
Q 2739 4006 2771 3849 
Q 2803 3693 2803 3533 
Q 2803 3360 2764 3197 
Q 2726 3034 2643 2886 
Q 2560 2739 2438 2624 
Q 2317 2509 2163 2432 
Q 2336 2362 2480 2237 
Q 2624 2112 2720 1952 
Q 2816 1792 2861 1609 
Q 2906 1427 2906 1242 
Q 2906 1069 2870 899 
Q 2835 730 2758 576 
Q 2682 422 2560 297 
Q 2438 173 2284 93 
Q 2131 13 1961 -19 
Q 1792 -51 1619 -51 
z
" transform="scale(0.015625)"/>
       </defs>
       <use xlink:href="#Iosevka25-Medium-33"/>
       <use xlink:href="#Iosevka25-Medium-54" transform="translate(49.999985 0)"/>
      </g>
     </g>
    </g>
    <g id="xtick_5">
     <g id="line2d_12">
      <path d="M 313.731818 354.935 
L 313.731818 30.1 
" clip-path="url(#pa8b4df5c22)" style="fill: none; stroke-dasharray: 1.48,0.64; stroke-dashoffset: 0; stroke: #838383; stroke-opacity: 0.3; stroke-width: 0.4"/>
     </g>
     <g id="line2d_13"/>
     <g id="text_5">
      <!-- 4T -->
      <g style="fill: #838383" transform="translate(305.231818 370.93) scale(0.17 -0.17)">
       <defs>
        <path id="Iosevka25-Medium-34" d="M 1843 0 
L 1843 1222 
L 346 1222 
L 346 1728 
L 1811 4704 
L 2394 4704 
L 934 1728 
L 1843 1728 
L 1843 2810 
L 2419 2810 
L 2419 1728 
L 2803 1728 
L 2803 1222 
L 2419 1222 
L 2419 0 
L 1843 0 
z
" transform="scale(0.015625)"/>
       </defs>
       <use xlink:href="#Iosevka25-Medium-34"/>
       <use xlink:href="#Iosevka25-Medium-54" transform="translate(49.999985 0)"/>
      </g>
     </g>
    </g>
    <g id="xtick_6">
     <g id="line2d_14">
      <path d="M 375.477273 354.935 
L 375.477273 30.1 
" clip-path="url(#pa8b4df5c22)" style="fill: none; stroke-dasharray: 1.48,0.64; stroke-dashoffset: 0; stroke: #838383; stroke-opacity: 0.3; stroke-width: 0.4"/>
     </g>
     <g id="line2d_15"/>
     <g id="text_6">
      <!-- 5T -->
      <g style="fill: #838383" transform="translate(366.977273 370.93) scale(0.17 -0.17)">
       <defs>
        <path id="Iosevka25-Medium-35" d="M 1613 -51 
Q 1453 -51 1296 -22 
Q 1139 6 998 76 
Q 858 147 742 259 
Q 627 371 550 512 
Q 474 653 432 809 
Q 390 966 384 1120 
L 960 1120 
Q 966 992 1011 867 
Q 1056 742 1145 646 
Q 1235 550 1360 505 
Q 1485 461 1613 461 
Q 1728 461 1840 505 
Q 1952 550 2029 633 
Q 2106 717 2154 825 
Q 2202 934 2230 1046 
Q 2259 1158 2268 1273 
Q 2278 1389 2278 1504 
Q 2278 1619 2268 1734 
Q 2259 1850 2233 1962 
Q 2208 2074 2163 2179 
Q 2118 2285 2041 2371 
Q 1965 2458 1856 2502 
Q 1747 2547 1632 2547 
Q 1523 2547 1414 2524 
Q 1306 2502 1216 2438 
Q 1126 2374 1075 2272 
Q 1024 2170 1018 2061 
L 442 2061 
L 442 4704 
L 2682 4704 
L 2682 4192 
L 1018 4192 
L 1018 2944 
Q 1165 3008 1321 3033 
Q 1478 3059 1632 3059 
Q 1824 3059 2006 3011 
Q 2189 2963 2336 2851 
Q 2483 2739 2588 2579 
Q 2694 2419 2752 2243 
Q 2810 2067 2832 1881 
Q 2854 1696 2854 1504 
Q 2854 1318 2832 1129 
Q 2810 941 2749 765 
Q 2688 589 2582 429 
Q 2477 269 2323 157 
Q 2170 45 1987 -3 
Q 1805 -51 1613 -51 
z
" transform="scale(0.015625)"/>
       </defs>
       <use xlink:href="#Iosevka25-Medium-35"/>
       <use xlink:href="#Iosevka25-Medium-54" transform="translate(49.999985 0)"/>
      </g>
     </g>
    </g>
    <g id="xtick_7">
     <g id="line2d_16">
      <path d="M 437.222727 354.935 
L 437.222727 30.1 
" clip-path="url(#pa8b4df5c22)" style="fill: none; stroke-dasharray: 1.48,0.64; stroke-dashoffset: 0; stroke: #838383; stroke-opacity: 0.3; stroke-width: 0.4"/>
     </g>
     <g id="line2d_17"/>
     <g id="text_7">
      <!-- 6T -->
      <g style="fill: #838383" transform="translate(428.722727 370.93) scale(0.17 -0.17)">
       <defs>
        <path id="Iosevka25-Medium-36" d="M 1600 -51 
Q 1414 -51 1235 -9 
Q 1056 32 902 134 
Q 749 237 637 384 
Q 525 531 461 700 
Q 397 870 371 1052 
Q 346 1235 346 1421 
Q 346 1709 397 1987 
Q 448 2266 537 2538 
Q 627 2810 748 3069 
Q 870 3328 998 3584 
L 1555 4704 
L 2182 4704 
L 1510 3354 
Q 1421 3174 1334 2988 
Q 1248 2803 1171 2611 
Q 1299 2752 1475 2822 
Q 1651 2893 1837 2893 
Q 2003 2893 2166 2838 
Q 2330 2784 2451 2669 
Q 2573 2554 2653 2400 
Q 2733 2246 2777 2086 
Q 2822 1926 2838 1756 
Q 2854 1587 2854 1421 
Q 2854 1235 2828 1052 
Q 2803 870 2739 700 
Q 2675 531 2563 384 
Q 2451 237 2297 134 
Q 2144 32 1965 -9 
Q 1786 -51 1600 -51 
z
M 1600 461 
Q 1709 461 1817 496 
Q 1926 531 2006 604 
Q 2086 678 2140 777 
Q 2195 877 2227 982 
Q 2259 1088 2268 1200 
Q 2278 1312 2278 1421 
Q 2278 1530 2268 1642 
Q 2259 1754 2227 1859 
Q 2195 1965 2140 2064 
Q 2086 2163 2006 2236 
Q 1926 2310 1817 2345 
Q 1709 2381 1600 2381 
Q 1498 2381 1402 2352 
Q 1306 2323 1226 2262 
Q 1146 2202 1091 2118 
Q 1037 2035 1001 1939 
Q 966 1843 947 1744 
Q 928 1645 922 1549 
L 922 1421 
Q 922 1312 931 1200 
Q 941 1088 973 982 
Q 1005 877 1059 777 
Q 1114 678 1194 604 
Q 1274 531 1382 496 
Q 1491 461 1600 461 
z
" transform="scale(0.015625)"/>
       </defs>
       <use xlink:href="#Iosevka25-Medium-36"/>
       <use xlink:href="#Iosevka25-Medium-54" transform="translate(49.999985 0)"/>
      </g>
     </g>
    </g>
    <g id="xtick_8">
     <g id="line2d_18">
      <path d="M 498.968182 354.935 
L 498.968182 30.1 
" clip-path="url(#pa8b4df5c22)" style="fill: none; stroke-dasharray: 1.48,0.64; stroke-dashoffset: 0; stroke: #838383; stroke-opacity: 0.3; stroke-width: 0.4"/>
     </g>
     <g id="line2d_19"/>
     <g id="text_8">
      <!-- 7T -->
      <g style="fill: #838383" transform="translate(490.468182 370.93) scale(0.17 -0.17)">
       <defs>
        <path id="Iosevka25-Medium-37" d="M 909 0 
L 2208 4192 
L 397 4192 
L 397 4704 
L 2803 4704 
L 2803 4192 
L 1504 0 
L 909 0 
z
" transform="scale(0.015625)"/>
       </defs>
       <use xlink:href="#Iosevka25-Medium-37"/>
       <use xlink:href="#Iosevka25-Medium-54" transform="translate(49.999985 0)"/>
      </g>
     </g>
    </g>
    <g id="text_9">
     <!-- Tokens consumed (T) -->
     <g style="fill: #838383" transform="translate(214.22 393.535625) scale(0.19 -0.19)">
      <defs>
       <path id="Iosevka25-Medium-6f" d="M 1600 -51 
Q 1427 -51 1254 -19 
Q 1082 13 931 99 
Q 781 186 662 317 
Q 544 448 473 605 
Q 403 762 374 934 
Q 346 1107 346 1280 
L 346 2048 
Q 346 2221 374 2393 
Q 403 2566 473 2723 
Q 544 2880 662 3011 
Q 781 3142 931 3228 
Q 1082 3315 1254 3347 
Q 1427 3379 1600 3379 
Q 1773 3379 1945 3347 
Q 2118 3315 2268 3228 
Q 2419 3142 2537 3011 
Q 2656 2880 2726 2723 
Q 2797 2566 2825 2393 
Q 2854 2221 2854 2048 
L 2854 1280 
Q 2854 1107 2825 934 
Q 2797 762 2726 605 
Q 2656 448 2537 317 
Q 2419 186 2268 99 
Q 2118 13 1945 -19 
Q 1773 -51 1600 -51 
z
M 1600 461 
Q 1754 461 1894 521 
Q 2035 582 2124 704 
Q 2214 826 2246 976 
Q 2278 1126 2278 1280 
L 2278 2048 
Q 2278 2202 2246 2352 
Q 2214 2502 2124 2624 
Q 2035 2746 1894 2806 
Q 1754 2867 1600 2867 
Q 1446 2867 1305 2806 
Q 1165 2746 1075 2624 
Q 986 2502 954 2352 
Q 922 2202 922 2048 
L 922 1280 
Q 922 1126 954 976 
Q 986 826 1075 704 
Q 1165 582 1305 521 
Q 1446 461 1600 461 
z
" transform="scale(0.015625)"/>
       <path id="Iosevka25-Medium-6b" d="M 2214 0 
L 1382 1376 
L 1069 973 
L 1069 0 
L 499 0 
L 499 4704 
L 1069 4704 
L 1069 1786 
L 2189 3328 
L 2867 3328 
L 1709 1811 
L 2867 0 
L 2214 0 
z
" transform="scale(0.015625)"/>
       <path id="Iosevka25-Medium-65" d="M 1600 -51 
Q 1427 -51 1254 -19 
Q 1082 13 931 99 
Q 781 186 662 317 
Q 544 448 470 605 
Q 397 762 371 934 
Q 346 1107 346 1280 
L 346 2048 
Q 346 2221 374 2393 
Q 403 2566 473 2723 
Q 544 2880 662 3011 
Q 781 3142 931 3228 
Q 1082 3315 1254 3347 
Q 1427 3379 1600 3379 
Q 1773 3379 1945 3347 
Q 2118 3315 2268 3228 
Q 2419 3142 2537 3011 
Q 2656 2880 2726 2723 
Q 2797 2566 2825 2393 
Q 2854 2221 2854 2048 
L 2854 1408 
L 922 1408 
L 922 1280 
Q 922 1126 954 979 
Q 986 832 1075 707 
Q 1165 582 1305 521 
Q 1446 461 1600 461 
Q 1715 461 1830 483 
Q 1946 506 2045 566 
Q 2144 627 2205 729 
Q 2266 832 2266 954 
L 2842 954 
Q 2842 800 2794 656 
Q 2746 512 2659 390 
Q 2573 269 2451 179 
Q 2330 90 2189 38 
Q 2048 -13 1897 -32 
Q 1747 -51 1600 -51 
z
M 922 1920 
L 2278 1920 
L 2278 2048 
Q 2278 2202 2246 2352 
Q 2214 2502 2124 2624 
Q 2035 2746 1894 2806 
Q 1754 2867 1600 2867 
Q 1446 2867 1305 2806 
Q 1165 2746 1075 2624 
Q 986 2502 954 2352 
Q 922 2202 922 2048 
L 922 1920 
z
" transform="scale(0.015625)"/>
       <path id="Iosevka25-Medium-6e" d="M 397 0 
L 397 3328 
L 973 3328 
L 973 2733 
Q 1018 2867 1098 2992 
Q 1178 3117 1293 3206 
Q 1408 3296 1549 3337 
Q 1690 3379 1837 3379 
Q 1990 3379 2140 3331 
Q 2291 3283 2409 3180 
Q 2528 3078 2605 2944 
Q 2682 2810 2726 2659 
Q 2771 2509 2787 2355 
Q 2803 2202 2803 2048 
L 2803 0 
L 2227 0 
L 2227 2048 
Q 2227 2144 2217 2243 
Q 2208 2342 2176 2435 
Q 2144 2528 2093 2611 
Q 2042 2694 1965 2755 
Q 1888 2816 1792 2841 
Q 1696 2867 1600 2867 
Q 1504 2867 1408 2841 
Q 1312 2816 1235 2755 
Q 1158 2694 1107 2611 
Q 1056 2528 1024 2435 
Q 992 2342 982 2243 
Q 973 2144 973 2048 
L 973 0 
L 397 0 
z
" transform="scale(0.015625)"/>
       <path id="Iosevka25-Medium-73" d="M 1594 -51 
Q 1453 -51 1312 -35 
Q 1171 -19 1036 25 
Q 902 70 780 144 
Q 659 218 569 326 
Q 480 435 432 569 
Q 384 704 384 845 
L 384 890 
L 960 890 
L 960 870 
Q 960 768 1024 678 
Q 1088 589 1184 541 
Q 1280 493 1385 477 
Q 1491 461 1594 461 
Q 1696 461 1801 477 
Q 1907 493 2003 537 
Q 2099 582 2163 672 
Q 2227 762 2227 864 
Q 2227 973 2163 1062 
Q 2099 1152 2006 1209 
Q 1914 1267 1811 1302 
Q 1709 1338 1606 1370 
Q 1504 1402 1401 1434 
Q 1299 1466 1203 1510 
Q 1107 1555 1011 1609 
Q 915 1664 832 1731 
Q 749 1798 678 1881 
Q 608 1965 557 2057 
Q 506 2150 477 2256 
Q 448 2362 448 2470 
Q 448 2605 493 2739 
Q 538 2874 618 2986 
Q 698 3098 816 3174 
Q 934 3251 1062 3299 
Q 1190 3347 1328 3363 
Q 1466 3379 1606 3379 
Q 1741 3379 1878 3363 
Q 2016 3347 2147 3302 
Q 2278 3258 2393 3181 
Q 2509 3104 2592 2995 
Q 2675 2886 2720 2752 
Q 2765 2618 2765 2483 
L 2765 2438 
L 2189 2438 
L 2189 2458 
Q 2189 2560 2134 2646 
Q 2080 2733 1993 2784 
Q 1907 2835 1808 2851 
Q 1709 2867 1606 2867 
Q 1504 2867 1408 2851 
Q 1312 2835 1222 2787 
Q 1133 2739 1078 2652 
Q 1024 2566 1024 2464 
Q 1024 2362 1088 2269 
Q 1152 2176 1241 2118 
Q 1331 2061 1433 2025 
Q 1536 1990 1638 1961 
Q 1741 1933 1843 1897 
Q 1946 1862 2045 1817 
Q 2144 1773 2237 1718 
Q 2330 1664 2416 1597 
Q 2502 1530 2572 1450 
Q 2643 1370 2694 1274 
Q 2746 1178 2774 1075 
Q 2803 973 2803 864 
Q 2803 723 2755 585 
Q 2707 448 2620 336 
Q 2534 224 2412 147 
Q 2291 70 2153 25 
Q 2016 -19 1875 -35 
Q 1734 -51 1594 -51 
z
" transform="scale(0.015625)"/>
       <path id="Iosevka25-Medium-20" transform="scale(0.015625)"/>
       <path id="Iosevka25-Medium-63" d="M 1581 -51 
Q 1408 -51 1238 -16 
Q 1069 19 918 102 
Q 768 186 653 317 
Q 538 448 467 608 
Q 397 768 371 937 
Q 346 1107 346 1280 
L 346 2048 
Q 346 2221 371 2390 
Q 397 2560 467 2720 
Q 538 2880 653 3011 
Q 768 3142 918 3225 
Q 1069 3309 1238 3344 
Q 1408 3379 1581 3379 
Q 1741 3379 1901 3350 
Q 2061 3322 2208 3251 
Q 2355 3181 2473 3069 
Q 2592 2957 2669 2813 
Q 2746 2669 2781 2512 
Q 2816 2355 2816 2189 
L 2816 2150 
L 2240 2150 
L 2240 2176 
Q 2240 2310 2198 2441 
Q 2157 2573 2067 2675 
Q 1978 2778 1846 2822 
Q 1715 2867 1581 2867 
Q 1434 2867 1293 2803 
Q 1152 2739 1065 2617 
Q 979 2496 950 2345 
Q 922 2195 922 2048 
L 922 1280 
Q 922 1133 950 982 
Q 979 832 1065 710 
Q 1152 589 1293 525 
Q 1434 461 1581 461 
Q 1715 461 1846 505 
Q 1978 550 2067 652 
Q 2157 755 2198 886 
Q 2240 1018 2240 1152 
L 2240 1178 
L 2816 1178 
L 2816 1139 
Q 2816 973 2781 816 
Q 2746 659 2669 515 
Q 2592 371 2473 259 
Q 2355 147 2208 76 
Q 2061 6 1901 -22 
Q 1741 -51 1581 -51 
z
" transform="scale(0.015625)"/>
       <path id="Iosevka25-Medium-75" d="M 1363 -51 
Q 1210 -51 1059 -3 
Q 909 45 790 147 
Q 672 250 595 384 
Q 518 518 473 668 
Q 429 819 413 972 
Q 397 1126 397 1280 
L 397 3328 
L 973 3328 
L 973 1280 
Q 973 1184 982 1085 
Q 992 986 1024 893 
Q 1056 800 1107 717 
Q 1158 634 1235 573 
Q 1312 512 1408 486 
Q 1504 461 1600 461 
Q 1696 461 1792 486 
Q 1888 512 1965 573 
Q 2042 634 2093 717 
Q 2144 800 2176 893 
Q 2208 986 2217 1085 
Q 2227 1184 2227 1280 
L 2227 3328 
L 2803 3328 
L 2803 0 
L 2227 0 
L 2227 595 
Q 2182 461 2102 336 
Q 2022 211 1907 121 
Q 1792 32 1651 -9 
Q 1510 -51 1363 -51 
z
" transform="scale(0.015625)"/>
       <path id="Iosevka25-Medium-6d" d="M 301 0 
L 301 3328 
L 826 3328 
L 826 3021 
Q 851 3091 896 3158 
Q 941 3226 1001 3277 
Q 1062 3328 1139 3353 
Q 1216 3379 1299 3379 
Q 1395 3379 1488 3340 
Q 1581 3302 1648 3232 
Q 1715 3162 1756 3072 
Q 1798 2982 1824 2886 
Q 1843 2982 1884 3072 
Q 1926 3162 1990 3232 
Q 2054 3302 2147 3340 
Q 2240 3379 2336 3379 
Q 2432 3379 2525 3340 
Q 2618 3302 2685 3232 
Q 2752 3162 2793 3072 
Q 2835 2982 2857 2886 
Q 2880 2790 2889 2691 
Q 2899 2592 2899 2496 
L 2899 0 
L 2374 0 
L 2374 2496 
Q 2374 2566 2364 2633 
Q 2355 2701 2326 2765 
Q 2298 2829 2243 2870 
Q 2189 2912 2118 2912 
Q 2048 2912 1993 2870 
Q 1939 2829 1910 2765 
Q 1882 2701 1872 2633 
Q 1862 2566 1862 2496 
L 1862 0 
L 1338 0 
L 1338 2496 
Q 1338 2566 1328 2633 
Q 1318 2701 1289 2765 
Q 1261 2829 1206 2870 
Q 1152 2912 1082 2912 
Q 1011 2912 956 2870 
Q 902 2829 873 2765 
Q 845 2701 835 2633 
Q 826 2566 826 2496 
L 826 0 
L 301 0 
z
" transform="scale(0.015625)"/>
       <path id="Iosevka25-Medium-64" d="M 1338 -51 
Q 1178 -51 1027 -6 
Q 877 38 755 140 
Q 634 243 554 377 
Q 474 512 426 662 
Q 378 813 362 969 
Q 346 1126 346 1280 
L 346 2048 
Q 346 2202 362 2358 
Q 378 2515 426 2665 
Q 474 2816 554 2950 
Q 634 3085 755 3187 
Q 877 3290 1027 3334 
Q 1178 3379 1338 3379 
Q 1485 3379 1632 3337 
Q 1779 3296 1894 3206 
Q 2010 3117 2093 2992 
Q 2176 2867 2227 2726 
L 2227 4704 
L 2803 4704 
L 2803 0 
L 2227 0 
L 2227 602 
Q 2176 461 2093 336 
Q 2010 211 1894 121 
Q 1779 32 1632 -9 
Q 1485 -51 1338 -51 
z
M 1574 461 
Q 1670 461 1769 486 
Q 1869 512 1949 569 
Q 2029 627 2083 710 
Q 2138 794 2170 890 
Q 2202 986 2214 1085 
Q 2227 1184 2227 1280 
L 2227 2048 
Q 2227 2144 2214 2243 
Q 2202 2342 2170 2438 
Q 2138 2534 2083 2617 
Q 2029 2701 1949 2758 
Q 1869 2816 1769 2841 
Q 1670 2867 1574 2867 
Q 1478 2867 1379 2841 
Q 1280 2816 1200 2758 
Q 1120 2701 1065 2617 
Q 1011 2534 979 2438 
Q 947 2342 934 2243 
Q 922 2144 922 2048 
L 922 1280 
Q 922 1184 934 1085 
Q 947 986 979 890 
Q 1011 794 1065 710 
Q 1120 627 1200 569 
Q 1280 512 1379 486 
Q 1478 461 1574 461 
z
" transform="scale(0.015625)"/>
       <path id="Iosevka25-Medium-28" d="M 2362 -1030 
Q 2086 -877 1846 -669 
Q 1606 -461 1414 -208 
Q 1222 45 1084 333 
Q 947 621 864 925 
Q 781 1229 745 1545 
Q 710 1862 710 2176 
Q 710 2490 745 2806 
Q 781 3123 864 3427 
Q 947 3731 1084 4019 
Q 1222 4307 1414 4560 
Q 1606 4813 1846 5021 
Q 2086 5229 2362 5382 
L 2650 4941 
Q 2298 4736 2026 4429 
Q 1754 4122 1587 3754 
Q 1421 3386 1353 2982 
Q 1286 2579 1286 2176 
Q 1286 1773 1353 1369 
Q 1421 966 1587 598 
Q 1754 230 2026 -77 
Q 2298 -384 2650 -589 
L 2362 -1030 
z
" transform="scale(0.015625)"/>
       <path id="Iosevka25-Medium-29" d="M 838 -1030 
L 550 -589 
Q 902 -384 1174 -77 
Q 1446 230 1612 598 
Q 1779 966 1846 1369 
Q 1914 1773 1914 2176 
Q 1914 2579 1846 2982 
Q 1779 3386 1612 3754 
Q 1446 4122 1174 4429 
Q 902 4736 550 4941 
L 838 5382 
Q 1114 5229 1354 5021 
Q 1594 4813 1786 4560 
Q 1978 4307 2115 4019 
Q 2253 3731 2336 3427 
Q 2419 3123 2454 2806 
Q 2490 2490 2490 2176 
Q 2490 1862 2454 1545 
Q 2419 1229 2336 925 
Q 2253 621 2115 333 
Q 1978 45 1786 -208 
Q 1594 -461 1354 -669 
Q 1114 -877 838 -1030 
z
" transform="scale(0.015625)"/>
      </defs>
      <use xlink:href="#Iosevka25-Medium-54"/>
      <use xlink:href="#Iosevka25-Medium-6f" transform="translate(49.999985 0)"/>
      <use xlink:href="#Iosevka25-Medium-6b" transform="translate(99.999969 0)"/>
      <use xlink:href="#Iosevka25-Medium-65" transform="translate(149.999954 0)"/>
      <use xlink:href="#Iosevka25-Medium-6e" transform="translate(199.999939 0)"/>
      <use xlink:href="#Iosevka25-Medium-73" transform="translate(249.999924 0)"/>
      <use xlink:href="#Iosevka25-Medium-20" transform="translate(299.999908 0)"/>
      <use xlink:href="#Iosevka25-Medium-63" transform="translate(349.999893 0)"/>
      <use xlink:href="#Iosevka25-Medium-6f" transform="translate(399.999878 0)"/>
      <use xlink:href="#Iosevka25-Medium-6e" transform="translate(449.999863 0)"/>
      <use xlink:href="#Iosevka25-Medium-73" transform="translate(499.999847 0)"/>
      <use xlink:href="#Iosevka25-Medium-75" transform="translate(549.999832 0)"/>
      <use xlink:href="#Iosevka25-Medium-6d" transform="translate(599.999817 0)"/>
      <use xlink:href="#Iosevka25-Medium-65" transform="translate(649.999802 0)"/>
      <use xlink:href="#Iosevka25-Medium-64" transform="translate(699.999786 0)"/>
      <use xlink:href="#Iosevka25-Medium-20" transform="translate(749.999771 0)"/>
      <use xlink:href="#Iosevka25-Medium-28" transform="translate(799.999756 0)"/>
      <use xlink:href="#Iosevka25-Medium-54" transform="translate(849.999741 0)"/>
      <use xlink:href="#Iosevka25-Medium-29" transform="translate(899.999725 0)"/>
     </g>
    </g>
   </g>
   <g id="matplotlib.axis_2">
    <g id="ytick_1">
     <g id="line2d_20">
      <path d="M 66.75 300.795833 
L 542.19 300.795833 
" clip-path="url(#pa8b4df5c22)" style="fill: none; stroke-dasharray: 1.48,0.64; stroke-dashoffset: 0; stroke: #838383; stroke-opacity: 0.3; stroke-width: 0.4"/>
     </g>
     <g id="line2d_21"/>
     <g id="text_10">
      <!-- 0.50 -->
      <g style="fill: #838383" transform="translate(29.25 307.043333) scale(0.17 -0.17)">
       <defs>
        <path id="Iosevka25-Medium-2e" d="M 1600 -51 
Q 1491 -51 1382 -19 
Q 1274 13 1197 93 
Q 1120 173 1085 281 
Q 1050 390 1050 499 
Q 1050 608 1085 717 
Q 1120 826 1197 902 
Q 1274 979 1382 1011 
Q 1491 1043 1600 1043 
Q 1709 1043 1817 1011 
Q 1926 979 2003 902 
Q 2080 826 2115 717 
Q 2150 608 2150 499 
Q 2150 390 2115 281 
Q 2080 173 2003 93 
Q 1926 13 1817 -19 
Q 1709 -51 1600 -51 
z
" transform="scale(0.015625)"/>
       </defs>
       <use xlink:href="#Iosevka25-Medium-30"/>
       <use xlink:href="#Iosevka25-Medium-2e" transform="translate(49.999985 0)"/>
       <use xlink:href="#Iosevka25-Medium-35" transform="translate(99.999969 0)"/>
       <use xlink:href="#Iosevka25-Medium-30" transform="translate(149.999954 0)"/>
      </g>
     </g>
    </g>
    <g id="ytick_2">
     <g id="line2d_22">
      <path d="M 66.75 165.447917 
L 542.19 165.447917 
" clip-path="url(#pa8b4df5c22)" style="fill: none; stroke-dasharray: 1.48,0.64; stroke-dashoffset: 0; stroke: #838383; stroke-opacity: 0.3; stroke-width: 0.4"/>
     </g>
     <g id="line2d_23"/>
     <g id="text_11">
      <!-- 0.55 -->
      <g style="fill: #838383" transform="translate(29.25 171.695417) scale(0.17 -0.17)">
       <use xlink:href="#Iosevka25-Medium-30"/>
       <use xlink:href="#Iosevka25-Medium-2e" transform="translate(49.999985 0)"/>
       <use xlink:href="#Iosevka25-Medium-35" transform="translate(99.999969 0)"/>
       <use xlink:href="#Iosevka25-Medium-35" transform="translate(149.999954 0)"/>
      </g>
     </g>
    </g>
    <g id="ytick_3">
     <g id="line2d_24">
      <path d="M 66.75 30.1 
L 542.19 30.1 
" clip-path="url(#pa8b4df5c22)" style="fill: none; stroke-dasharray: 1.48,0.64; stroke-dashoffset: 0; stroke: #838383; stroke-opacity: 0.3; stroke-width: 0.4"/>
     </g>
     <g id="line2d_25"/>
     <g id="text_12">
      <!-- 0.60 -->
      <g style="fill: #838383" transform="translate(29.25 36.3475) scale(0.17 -0.17)">
       <use xlink:href="#Iosevka25-Medium-30"/>
       <use xlink:href="#Iosevka25-Medium-2e" transform="translate(49.999985 0)"/>
       <use xlink:href="#Iosevka25-Medium-36" transform="translate(99.999969 0)"/>
       <use xlink:href="#Iosevka25-Medium-30" transform="translate(149.999954 0)"/>
      </g>
     </g>
    </g>
    <g id="text_13">
     <!-- Accuracy -->
     <g style="fill: #838383" transform="translate(21.165 230.5175) rotate(-90) scale(0.19 -0.19)">
      <defs>
       <path id="Iosevka25-Medium-41" d="M 262 0 
L 1267 4704 
L 1933 4704 
L 2938 0 
L 2349 0 
L 2118 1152 
L 1082 1152 
L 851 0 
L 262 0 
z
M 2022 1664 
L 1728 3136 
Q 1696 3302 1664 3468 
Q 1632 3635 1600 3808 
Q 1568 3635 1536 3468 
Q 1504 3302 1472 3136 
L 1178 1664 
L 2022 1664 
z
" transform="scale(0.015625)"/>
       <path id="Iosevka25-Medium-72" d="M 781 0 
L 781 3328 
L 1357 3328 
L 1357 2624 
Q 1395 2765 1459 2899 
Q 1523 3034 1622 3146 
Q 1722 3258 1859 3318 
Q 1997 3379 2150 3379 
Q 2266 3379 2384 3347 
Q 2502 3315 2595 3238 
Q 2688 3162 2749 3059 
Q 2810 2957 2842 2841 
Q 2874 2726 2886 2608 
Q 2899 2490 2899 2368 
L 2323 2368 
Q 2323 2458 2310 2544 
Q 2298 2630 2256 2707 
Q 2214 2784 2134 2825 
Q 2054 2867 1965 2867 
Q 1850 2867 1744 2809 
Q 1638 2752 1568 2659 
Q 1498 2566 1459 2454 
Q 1421 2342 1395 2227 
Q 1370 2112 1363 1997 
Q 1357 1882 1357 1766 
L 1357 0 
L 781 0 
z
" transform="scale(0.015625)"/>
       <path id="Iosevka25-Medium-61" d="M 1331 -51 
Q 1139 -51 947 6 
Q 755 64 614 201 
Q 474 339 410 531 
Q 346 723 346 915 
Q 346 1082 387 1245 
Q 429 1408 531 1536 
Q 634 1664 774 1753 
Q 915 1843 1072 1894 
Q 1229 1946 1392 1965 
Q 1555 1984 1722 1984 
L 2227 1984 
L 2227 2272 
Q 2227 2400 2185 2518 
Q 2144 2637 2051 2720 
Q 1958 2803 1836 2835 
Q 1715 2867 1594 2867 
Q 1478 2867 1369 2844 
Q 1261 2822 1168 2761 
Q 1075 2701 1017 2601 
Q 960 2502 960 2394 
L 960 2374 
L 384 2374 
L 384 2406 
Q 384 2554 429 2694 
Q 474 2835 557 2953 
Q 640 3072 761 3155 
Q 883 3238 1020 3289 
Q 1158 3341 1302 3360 
Q 1446 3379 1594 3379 
Q 1747 3379 1904 3356 
Q 2061 3334 2201 3273 
Q 2342 3213 2464 3110 
Q 2586 3008 2662 2873 
Q 2739 2739 2771 2585 
Q 2803 2432 2803 2272 
L 2803 0 
L 2227 0 
L 2227 538 
Q 2176 410 2086 291 
Q 1997 173 1878 93 
Q 1760 13 1619 -19 
Q 1478 -51 1331 -51 
z
M 1574 461 
Q 1709 461 1840 505 
Q 1971 550 2064 649 
Q 2157 749 2192 883 
Q 2227 1018 2227 1152 
L 2227 1472 
L 1722 1472 
Q 1632 1472 1542 1465 
Q 1453 1459 1369 1436 
Q 1286 1414 1203 1379 
Q 1120 1344 1053 1286 
Q 986 1229 954 1145 
Q 922 1062 922 973 
Q 922 858 976 749 
Q 1030 640 1126 573 
Q 1222 506 1337 483 
Q 1453 461 1574 461 
z
" transform="scale(0.015625)"/>
       <path id="Iosevka25-Medium-79" d="M 928 -1376 
Q 992 -1165 1053 -957 
Q 1114 -749 1171 -538 
L 1312 -64 
L 320 3328 
L 909 3328 
L 1606 685 
L 2291 3328 
L 2880 3328 
L 1722 -678 
L 1523 -1376 
L 928 -1376 
z
" transform="scale(0.015625)"/>
      </defs>
      <use xlink:href="#Iosevka25-Medium-41"/>
      <use xlink:href="#Iosevka25-Medium-63" transform="translate(49.999985 0)"/>
      <use xlink:href="#Iosevka25-Medium-63" transform="translate(99.999969 0)"/>
      <use xlink:href="#Iosevka25-Medium-75" transform="translate(149.999954 0)"/>
      <use xlink:href="#Iosevka25-Medium-72" transform="translate(199.999939 0)"/>
      <use xlink:href="#Iosevka25-Medium-61" transform="translate(249.999924 0)"/>
      <use xlink:href="#Iosevka25-Medium-63" transform="translate(299.999908 0)"/>
      <use xlink:href="#Iosevka25-Medium-79" transform="translate(349.999893 0)"/>
     </g>
    </g>
   </g>
   <g id="patch_3">
    <path d="M 66.75 354.935 
L 66.75 30.1 
" style="fill: none"/>
   </g>
   <g id="patch_4">
    <path d="M 66.75 354.935 
L 542.19 354.935 
" style="fill: none"/>
   </g>
   <g id="line2d_26">
    <path d="M 82.288752 297.006092 
L 97.827505 273.455554 
L 113.366257 190.081237 
L 128.90501 147.311296 
L 144.443762 159.492608 
L 159.982515 133.776504 
L 175.521267 122.407279 
L 191.060019 106.706921 
L 206.598772 142.980162 
L 222.137524 82.614992 
L 237.676277 83.968471 
L 253.215029 102.375787 
L 268.753781 103.999962 
L 284.292534 107.519008 
L 299.831286 104.541354 
L 315.370039 113.745012 
L 330.908791 114.5571 
L 346.447544 89.653083 
L 361.986296 92.360042 
L 377.525048 68.268112 
L 393.063801 29.017217 
L 408.602553 90.465171 
L 424.141306 44.717575 
L 439.680058 66.914633 
L 455.21881 76.930379 
L 470.757563 71.787158 
L 486.296315 63.395587 
L 501.835068 82.614992 
" clip-path="url(#pa8b4df5c22)" style="fill: none; stroke-dasharray: 1.8,2.97; stroke-dashoffset: 0; stroke: #1976d2; stroke-opacity: 0.9; stroke-width: 1.8"/>
    <defs>
     <path id="md886f2de4c" d="M -2.5 2.5 
L 2.5 -2.5 
M -2.5 -2.5 
L 2.5 2.5 
" style="stroke: #1976d2; stroke-opacity: 0.9"/>
    </defs>
    <g clip-path="url(#pa8b4df5c22)">
     <use xlink:href="#md886f2de4c" x="82.288752" y="297.006092" style="fill: #1976d2; fill-opacity: 0.9; stroke: #1976d2; stroke-opacity: 0.9"/>
     <use xlink:href="#md886f2de4c" x="97.827505" y="273.455554" style="fill: #1976d2; fill-opacity: 0.9; stroke: #1976d2; stroke-opacity: 0.9"/>
     <use xlink:href="#md886f2de4c" x="113.366257" y="190.081237" style="fill: #1976d2; fill-opacity: 0.9; stroke: #1976d2; stroke-opacity: 0.9"/>
     <use xlink:href="#md886f2de4c" x="128.90501" y="147.311296" style="fill: #1976d2; fill-opacity: 0.9; stroke: #1976d2; stroke-opacity: 0.9"/>
     <use xlink:href="#md886f2de4c" x="144.443762" y="159.492608" style="fill: #1976d2; fill-opacity: 0.9; stroke: #1976d2; stroke-opacity: 0.9"/>
     <use xlink:href="#md886f2de4c" x="159.982515" y="133.776504" style="fill: #1976d2; fill-opacity: 0.9; stroke: #1976d2; stroke-opacity: 0.9"/>
     <use xlink:href="#md886f2de4c" x="175.521267" y="122.407279" style="fill: #1976d2; fill-opacity: 0.9; stroke: #1976d2; stroke-opacity: 0.9"/>
     <use xlink:href="#md886f2de4c" x="191.060019" y="106.706921" style="fill: #1976d2; fill-opacity: 0.9; stroke: #1976d2; stroke-opacity: 0.9"/>
     <use xlink:href="#md886f2de4c" x="206.598772" y="142.980162" style="fill: #1976d2; fill-opacity: 0.9; stroke: #1976d2; stroke-opacity: 0.9"/>
     <use xlink:href="#md886f2de4c" x="222.137524" y="82.614992" style="fill: #1976d2; fill-opacity: 0.9; stroke: #1976d2; stroke-opacity: 0.9"/>
     <use xlink:href="#md886f2de4c" x="237.676277" y="83.968471" style="fill: #1976d2; fill-opacity: 0.9; stroke: #1976d2; stroke-opacity: 0.9"/>
     <use xlink:href="#md886f2de4c" x="253.215029" y="102.375787" style="fill: #1976d2; fill-opacity: 0.9; stroke: #1976d2; stroke-opacity: 0.9"/>
     <use xlink:href="#md886f2de4c" x="268.753781" y="103.999962" style="fill: #1976d2; fill-opacity: 0.9; stroke: #1976d2; stroke-opacity: 0.9"/>
     <use xlink:href="#md886f2de4c" x="284.292534" y="107.519008" style="fill: #1976d2; fill-opacity: 0.9; stroke: #1976d2; stroke-opacity: 0.9"/>
     <use xlink:href="#md886f2de4c" x="299.831286" y="104.541354" style="fill: #1976d2; fill-opacity: 0.9; stroke: #1976d2; stroke-opacity: 0.9"/>
     <use xlink:href="#md886f2de4c" x="315.370039" y="113.745012" style="fill: #1976d2; fill-opacity: 0.9; stroke: #1976d2; stroke-opacity: 0.9"/>
     <use xlink:href="#md886f2de4c" x="330.908791" y="114.5571" style="fill: #1976d2; fill-opacity: 0.9; stroke: #1976d2; stroke-opacity: 0.9"/>
     <use xlink:href="#md886f2de4c" x="346.447544" y="89.653083" style="fill: #1976d2; fill-opacity: 0.9; stroke: #1976d2; stroke-opacity: 0.9"/>
     <use xlink:href="#md886f2de4c" x="361.986296" y="92.360042" style="fill: #1976d2; fill-opacity: 0.9; stroke: #1976d2; stroke-opacity: 0.9"/>
     <use xlink:href="#md886f2de4c" x="377.525048" y="68.268112" style="fill: #1976d2; fill-opacity: 0.9; stroke: #1976d2; stroke-opacity: 0.9"/>
     <use xlink:href="#md886f2de4c" x="393.063801" y="29.017217" style="fill: #1976d2; fill-opacity: 0.9; stroke: #1976d2; stroke-opacity: 0.9"/>
     <use xlink:href="#md886f2de4c" x="408.602553" y="90.465171" style="fill: #1976d2; fill-opacity: 0.9; stroke: #1976d2; stroke-opacity: 0.9"/>
     <use xlink:href="#md886f2de4c" x="424.141306" y="44.717575" style="fill: #1976d2; fill-opacity: 0.9; stroke: #1976d2; stroke-opacity: 0.9"/>
     <use xlink:href="#md886f2de4c" x="439.680058" y="66.914633" style="fill: #1976d2; fill-opacity: 0.9; stroke: #1976d2; stroke-opacity: 0.9"/>
     <use xlink:href="#md886f2de4c" x="455.21881" y="76.930379" style="fill: #1976d2; fill-opacity: 0.9; stroke: #1976d2; stroke-opacity: 0.9"/>
     <use xlink:href="#md886f2de4c" x="470.757563" y="71.787158" style="fill: #1976d2; fill-opacity: 0.9; stroke: #1976d2; stroke-opacity: 0.9"/>
     <use xlink:href="#md886f2de4c" x="486.296315" y="63.395587" style="fill: #1976d2; fill-opacity: 0.9; stroke: #1976d2; stroke-opacity: 0.9"/>
     <use xlink:href="#md886f2de4c" x="501.835068" y="82.614992" style="fill: #1976d2; fill-opacity: 0.9; stroke: #1976d2; stroke-opacity: 0.9"/>
    </g>
   </g>
   <g id="text_14">
    <!-- Winogrande -->
    <g style="fill: #838383" transform="translate(254.47 22.1) scale(0.2 -0.2)">
     <defs>
      <path id="Iosevka25-Semibold-57" d="M 723 0 
L 179 4704 
L 794 4704 
L 1037 1274 
L 1331 3386 
L 1869 3386 
L 2163 1274 
L 2406 4704 
L 3021 4704 
L 2477 0 
L 1939 0 
L 1600 2426 
L 1261 0 
L 723 0 
z
" transform="scale(0.015625)"/>
      <path id="Iosevka25-Semibold-69" d="M 480 0 
L 480 563 
L 1325 563 
L 1325 2765 
L 570 2765 
L 570 3328 
L 1965 3328 
L 1965 563 
L 2720 563 
L 2720 0 
L 480 0 
z
M 1632 3808 
Q 1536 3808 1440 3837 
Q 1344 3866 1277 3933 
Q 1210 4000 1181 4096 
Q 1152 4192 1152 4288 
Q 1152 4384 1181 4480 
Q 1210 4576 1277 4643 
Q 1344 4710 1440 4739 
Q 1536 4768 1632 4768 
Q 1728 4768 1824 4739 
Q 1920 4710 1987 4643 
Q 2054 4576 2083 4480 
Q 2112 4384 2112 4288 
Q 2112 4192 2083 4096 
Q 2054 4000 1987 3933 
Q 1920 3866 1824 3837 
Q 1728 3808 1632 3808 
z
" transform="scale(0.015625)"/>
      <path id="Iosevka25-Semibold-6e" d="M 384 0 
L 384 3328 
L 1024 3328 
L 1024 2739 
Q 1075 2874 1152 2995 
Q 1229 3117 1341 3206 
Q 1453 3296 1590 3337 
Q 1728 3379 1869 3379 
Q 2022 3379 2172 3331 
Q 2323 3283 2435 3180 
Q 2547 3078 2624 2940 
Q 2701 2803 2742 2656 
Q 2784 2509 2800 2355 
Q 2816 2202 2816 2048 
L 2816 0 
L 2176 0 
L 2176 2048 
Q 2176 2138 2166 2227 
Q 2157 2317 2128 2403 
Q 2099 2490 2051 2570 
Q 2003 2650 1936 2707 
Q 1869 2765 1779 2790 
Q 1690 2816 1600 2816 
Q 1510 2816 1420 2790 
Q 1331 2765 1264 2707 
Q 1197 2650 1149 2570 
Q 1101 2490 1072 2403 
Q 1043 2317 1033 2227 
Q 1024 2138 1024 2048 
L 1024 0 
L 384 0 
z
" transform="scale(0.015625)"/>
      <path id="Iosevka25-Semibold-6f" d="M 1600 -51 
Q 1427 -51 1254 -19 
Q 1082 13 928 96 
Q 774 179 656 310 
Q 538 442 464 602 
Q 390 762 361 934 
Q 333 1107 333 1280 
L 333 2048 
Q 333 2221 361 2393 
Q 390 2566 464 2726 
Q 538 2886 656 3017 
Q 774 3149 928 3232 
Q 1082 3315 1254 3347 
Q 1427 3379 1600 3379 
Q 1773 3379 1945 3347 
Q 2118 3315 2272 3232 
Q 2426 3149 2544 3017 
Q 2662 2886 2736 2726 
Q 2810 2566 2838 2393 
Q 2867 2221 2867 2048 
L 2867 1280 
Q 2867 1107 2838 934 
Q 2810 762 2736 602 
Q 2662 442 2544 310 
Q 2426 179 2272 96 
Q 2118 13 1945 -19 
Q 1773 -51 1600 -51 
z
M 1600 512 
Q 1741 512 1872 573 
Q 2003 634 2083 746 
Q 2163 858 2195 998 
Q 2227 1139 2227 1280 
L 2227 2048 
Q 2227 2189 2195 2329 
Q 2163 2470 2083 2582 
Q 2003 2694 1872 2755 
Q 1741 2816 1600 2816 
Q 1459 2816 1328 2755 
Q 1197 2694 1117 2582 
Q 1037 2470 1005 2329 
Q 973 2189 973 2048 
L 973 1280 
Q 973 1139 1005 998 
Q 1037 858 1117 746 
Q 1197 634 1328 573 
Q 1459 512 1600 512 
z
" transform="scale(0.015625)"/>
      <path id="Iosevka25-Semibold-67" d="M 1587 -1427 
Q 1440 -1427 1296 -1408 
Q 1152 -1389 1017 -1341 
Q 883 -1293 761 -1209 
Q 640 -1126 553 -1011 
Q 467 -896 419 -755 
Q 371 -614 371 -467 
L 1011 -467 
Q 1018 -570 1072 -653 
Q 1126 -736 1209 -784 
Q 1293 -832 1392 -848 
Q 1491 -864 1587 -864 
Q 1677 -864 1766 -838 
Q 1856 -813 1926 -755 
Q 1997 -698 2048 -621 
Q 2099 -544 2124 -457 
Q 2150 -371 2163 -278 
Q 2176 -186 2176 -96 
L 2176 595 
Q 2125 454 2045 332 
Q 1965 211 1849 121 
Q 1734 32 1590 -9 
Q 1446 -51 1306 -51 
Q 1146 -51 995 -3 
Q 845 45 729 144 
Q 614 243 534 380 
Q 454 518 409 665 
Q 365 813 349 969 
Q 333 1126 333 1280 
L 333 2048 
Q 333 2202 349 2358 
Q 365 2515 409 2662 
Q 454 2810 534 2947 
Q 614 3085 729 3184 
Q 845 3283 995 3331 
Q 1146 3379 1306 3379 
Q 1446 3379 1590 3337 
Q 1734 3296 1849 3206 
Q 1965 3117 2045 2995 
Q 2125 2874 2176 2733 
L 2176 3328 
L 2816 3328 
L 2816 -96 
Q 2816 -269 2790 -438 
Q 2765 -608 2694 -765 
Q 2624 -922 2509 -1056 
Q 2394 -1190 2246 -1273 
Q 2099 -1357 1929 -1392 
Q 1760 -1427 1587 -1427 
z
M 1574 512 
Q 1715 512 1840 573 
Q 1965 634 2041 749 
Q 2118 864 2147 1001 
Q 2176 1139 2176 1280 
L 2176 2048 
Q 2176 2189 2147 2326 
Q 2118 2464 2041 2579 
Q 1965 2694 1840 2755 
Q 1715 2816 1574 2816 
Q 1434 2816 1309 2755 
Q 1184 2694 1107 2579 
Q 1030 2464 1001 2326 
Q 973 2189 973 2048 
L 973 1280 
Q 973 1139 1001 1001 
Q 1030 864 1107 749 
Q 1184 634 1309 573 
Q 1434 512 1574 512 
z
" transform="scale(0.015625)"/>
      <path id="Iosevka25-Semibold-72" d="M 762 0 
L 762 3328 
L 1402 3328 
L 1402 2630 
Q 1446 2771 1507 2905 
Q 1568 3040 1664 3149 
Q 1760 3258 1897 3318 
Q 2035 3379 2182 3379 
Q 2304 3379 2419 3344 
Q 2534 3309 2627 3229 
Q 2720 3149 2777 3043 
Q 2835 2938 2867 2819 
Q 2899 2701 2908 2582 
Q 2918 2464 2918 2342 
L 2278 2342 
Q 2278 2426 2265 2506 
Q 2253 2586 2214 2659 
Q 2176 2733 2102 2774 
Q 2029 2816 1952 2816 
Q 1843 2816 1744 2758 
Q 1645 2701 1587 2608 
Q 1530 2515 1494 2412 
Q 1459 2310 1436 2201 
Q 1414 2093 1408 1984 
Q 1402 1875 1402 1766 
L 1402 0 
L 762 0 
z
" transform="scale(0.015625)"/>
      <path id="Iosevka25-Semibold-61" d="M 1299 -51 
Q 1107 -51 915 9 
Q 723 70 588 208 
Q 454 346 393 534 
Q 333 723 333 922 
Q 333 1088 374 1251 
Q 416 1414 518 1545 
Q 621 1677 765 1769 
Q 909 1862 1065 1913 
Q 1222 1965 1388 1984 
Q 1555 2003 1722 2003 
L 2176 2003 
L 2176 2266 
Q 2176 2381 2137 2489 
Q 2099 2598 2016 2675 
Q 1933 2752 1821 2784 
Q 1709 2816 1594 2816 
Q 1491 2816 1388 2797 
Q 1286 2778 1200 2720 
Q 1114 2662 1062 2569 
Q 1011 2477 1011 2374 
L 1011 2355 
L 371 2355 
L 371 2387 
Q 371 2534 416 2678 
Q 461 2822 544 2944 
Q 627 3066 752 3152 
Q 877 3238 1014 3289 
Q 1152 3341 1299 3360 
Q 1446 3379 1594 3379 
Q 1747 3379 1904 3356 
Q 2061 3334 2205 3270 
Q 2349 3206 2470 3104 
Q 2592 3002 2672 2867 
Q 2752 2733 2784 2576 
Q 2816 2419 2816 2266 
L 2816 0 
L 2176 0 
L 2176 531 
Q 2125 403 2038 288 
Q 1952 173 1837 93 
Q 1722 13 1581 -19 
Q 1440 -51 1299 -51 
z
M 1574 512 
Q 1696 512 1817 553 
Q 1939 595 2022 688 
Q 2106 781 2141 902 
Q 2176 1024 2176 1152 
L 2176 1440 
L 1722 1440 
Q 1638 1440 1558 1433 
Q 1478 1427 1398 1408 
Q 1318 1389 1241 1357 
Q 1165 1325 1101 1273 
Q 1037 1222 1005 1142 
Q 973 1062 973 979 
Q 973 877 1024 777 
Q 1075 678 1161 617 
Q 1248 557 1357 534 
Q 1466 512 1574 512 
z
" transform="scale(0.015625)"/>
      <path id="Iosevka25-Semibold-64" d="M 1306 -51 
Q 1146 -51 995 -3 
Q 845 45 729 144 
Q 614 243 534 380 
Q 454 518 409 665 
Q 365 813 349 969 
Q 333 1126 333 1280 
L 333 2048 
Q 333 2202 349 2358 
Q 365 2515 409 2662 
Q 454 2810 534 2947 
Q 614 3085 729 3184 
Q 845 3283 995 3331 
Q 1146 3379 1306 3379 
Q 1446 3379 1590 3337 
Q 1734 3296 1849 3206 
Q 1965 3117 2045 2995 
Q 2125 2874 2176 2733 
L 2176 4704 
L 2816 4704 
L 2816 0 
L 2176 0 
L 2176 595 
Q 2125 454 2045 332 
Q 1965 211 1849 121 
Q 1734 32 1590 -9 
Q 1446 -51 1306 -51 
z
M 1574 512 
Q 1715 512 1840 573 
Q 1965 634 2041 749 
Q 2118 864 2147 1001 
Q 2176 1139 2176 1280 
L 2176 2048 
Q 2176 2189 2147 2326 
Q 2118 2464 2041 2579 
Q 1965 2694 1840 2755 
Q 1715 2816 1574 2816 
Q 1434 2816 1309 2755 
Q 1184 2694 1107 2579 
Q 1030 2464 1001 2326 
Q 973 2189 973 2048 
L 973 1280 
Q 973 1139 1001 1001 
Q 1030 864 1107 749 
Q 1184 634 1309 573 
Q 1434 512 1574 512 
z
" transform="scale(0.015625)"/>
      <path id="Iosevka25-Semibold-65" d="M 1600 -51 
Q 1427 -51 1254 -19 
Q 1082 13 928 96 
Q 774 179 656 310 
Q 538 442 464 602 
Q 390 762 361 934 
Q 333 1107 333 1280 
L 333 2048 
Q 333 2221 361 2393 
Q 390 2566 464 2726 
Q 538 2886 656 3017 
Q 774 3149 928 3232 
Q 1082 3315 1254 3347 
Q 1427 3379 1600 3379 
Q 1773 3379 1945 3347 
Q 2118 3315 2272 3232 
Q 2426 3149 2544 3017 
Q 2662 2886 2736 2726 
Q 2810 2566 2838 2393 
Q 2867 2221 2867 2048 
L 2867 1382 
L 973 1382 
L 973 1280 
Q 973 1139 1001 998 
Q 1030 858 1113 746 
Q 1197 634 1328 573 
Q 1459 512 1600 512 
Q 1709 512 1814 531 
Q 1920 550 2009 611 
Q 2099 672 2153 768 
Q 2208 864 2214 973 
L 2854 973 
Q 2854 819 2809 672 
Q 2765 525 2675 400 
Q 2586 275 2461 185 
Q 2336 96 2195 41 
Q 2054 -13 1900 -32 
Q 1747 -51 1600 -51 
z
M 2227 1946 
L 2227 2048 
Q 2227 2189 2195 2329 
Q 2163 2470 2083 2582 
Q 2003 2694 1872 2755 
Q 1741 2816 1600 2816 
Q 1459 2816 1328 2755 
Q 1197 2694 1117 2582 
Q 1037 2470 1005 2329 
Q 973 2189 973 2048 
L 973 1946 
L 2227 1946 
z
" transform="scale(0.015625)"/>
     </defs>
     <use xlink:href="#Iosevka25-Semibold-57"/>
     <use xlink:href="#Iosevka25-Semibold-69" transform="translate(49.999985 0)"/>
     <use xlink:href="#Iosevka25-Semibold-6e" transform="translate(99.999969 0)"/>
     <use xlink:href="#Iosevka25-Semibold-6f" transform="translate(149.999954 0)"/>
     <use xlink:href="#Iosevka25-Semibold-67" transform="translate(199.999939 0)"/>
     <use xlink:href="#Iosevka25-Semibold-72" transform="translate(249.999924 0)"/>
     <use xlink:href="#Iosevka25-Semibold-61" transform="translate(299.999908 0)"/>
     <use xlink:href="#Iosevka25-Semibold-6e" transform="translate(349.999893 0)"/>
     <use xlink:href="#Iosevka25-Semibold-64" transform="translate(399.999878 0)"/>
     <use xlink:href="#Iosevka25-Semibold-65" transform="translate(449.999863 0)"/>
    </g>
   </g>
   <g id="line2d_27">
    <path d="M 67.37155 318.932454 
L 67.9931 321.098021 
L 68.61465 338.151858 
L 69.2362 355.205696 
L 69.85775 301.878617 
L 70.479301 261.274242 
L 71.100851 282.659212 
L 71.722401 284.824779 
L 72.343951 295.381917 
L 72.965501 312.435754 
L 76.073251 246.115275 
L 79.181002 249.363625 
L 82.288752 233.392571 
L 85.396503 217.421517 
L 88.504253 208.75925 
L 91.612004 200.096983 
L 94.719754 202.26255 
L 97.827505 204.428117 
L 100.935255 221.75265 
L 104.043006 238.806487 
L 107.150756 212.0076 
L 110.258507 250.717104 
L 113.366257 248.551537 
L 116.474008 218.5043 
L 119.581758 227.166567 
L 122.689509 210.112729 
L 125.797259 188.727758 
L 128.90501 197.119329 
L 132.01276 212.0076 
L 135.120511 197.119329 
L 138.228261 214.173167 
L 141.336012 165.177221 
L 144.443762 227.166567 
L 144.754537 214.173167 
L 147.551513 168.154875 
L 150.659263 165.989308 
L 153.767014 163.823742 
L 156.874764 173.568792 
L 159.982515 183.043146 
L 163.090265 168.154875 
L 166.198015 153.266604 
L 169.305766 155.432171 
L 172.413516 157.597737 
L 175.521267 159.763304 
L 178.629017 163.011654 
L 181.736768 148.123383 
L 184.844518 150.28895 
L 187.330719 184.396625 
L 191.060019 180.065492 
L 194.16777 152.183821 
L 197.27552 150.28895 
L 198.829396 124.572846 
L 203.491021 152.183821 
L 206.598772 177.899925 
L 208.152647 163.011654 
L 212.814273 173.568792 
L 215.922023 141.626683 
L 219.029774 177.899925 
L 220.583649 175.734358 
" clip-path="url(#pa8b4df5c22)" style="fill: none; stroke: #ef5350; stroke-opacity: 0.9; stroke-width: 1.8; stroke-linecap: round"/>
    <defs>
     <path id="mc81381a924" d="M -2.5 2.5 
L 2.5 2.5 
L 2.5 -2.5 
L -2.5 -2.5 
z
" style="stroke: #ef5350; stroke-opacity: 0.9; stroke-linejoin: miter"/>
    </defs>
    <g clip-path="url(#pa8b4df5c22)">
     <use xlink:href="#mc81381a924" x="67.37155" y="318.932454" style="fill: #ef5350; fill-opacity: 0.9; stroke: #ef5350; stroke-opacity: 0.9; stroke-linejoin: miter"/>
     <use xlink:href="#mc81381a924" x="67.9931" y="321.098021" style="fill: #ef5350; fill-opacity: 0.9; stroke: #ef5350; stroke-opacity: 0.9; stroke-linejoin: miter"/>
     <use xlink:href="#mc81381a924" x="68.61465" y="338.151858" style="fill: #ef5350; fill-opacity: 0.9; stroke: #ef5350; stroke-opacity: 0.9; stroke-linejoin: miter"/>
     <use xlink:href="#mc81381a924" x="69.2362" y="355.205696" style="fill: #ef5350; fill-opacity: 0.9; stroke: #ef5350; stroke-opacity: 0.9; stroke-linejoin: miter"/>
     <use xlink:href="#mc81381a924" x="69.85775" y="301.878617" style="fill: #ef5350; fill-opacity: 0.9; stroke: #ef5350; stroke-opacity: 0.9; stroke-linejoin: miter"/>
     <use xlink:href="#mc81381a924" x="70.479301" y="261.274242" style="fill: #ef5350; fill-opacity: 0.9; stroke: #ef5350; stroke-opacity: 0.9; stroke-linejoin: miter"/>
     <use xlink:href="#mc81381a924" x="71.100851" y="282.659212" style="fill: #ef5350; fill-opacity: 0.9; stroke: #ef5350; stroke-opacity: 0.9; stroke-linejoin: miter"/>
     <use xlink:href="#mc81381a924" x="71.722401" y="284.824779" style="fill: #ef5350; fill-opacity: 0.9; stroke: #ef5350; stroke-opacity: 0.9; stroke-linejoin: miter"/>
     <use xlink:href="#mc81381a924" x="72.343951" y="295.381917" style="fill: #ef5350; fill-opacity: 0.9; stroke: #ef5350; stroke-opacity: 0.9; stroke-linejoin: miter"/>
     <use xlink:href="#mc81381a924" x="72.965501" y="312.435754" style="fill: #ef5350; fill-opacity: 0.9; stroke: #ef5350; stroke-opacity: 0.9; stroke-linejoin: miter"/>
     <use xlink:href="#mc81381a924" x="76.073251" y="246.115275" style="fill: #ef5350; fill-opacity: 0.9; stroke: #ef5350; stroke-opacity: 0.9; stroke-linejoin: miter"/>
     <use xlink:href="#mc81381a924" x="79.181002" y="249.363625" style="fill: #ef5350; fill-opacity: 0.9; stroke: #ef5350; stroke-opacity: 0.9; stroke-linejoin: miter"/>
     <use xlink:href="#mc81381a924" x="82.288752" y="233.392571" style="fill: #ef5350; fill-opacity: 0.9; stroke: #ef5350; stroke-opacity: 0.9; stroke-linejoin: miter"/>
     <use xlink:href="#mc81381a924" x="85.396503" y="217.421517" style="fill: #ef5350; fill-opacity: 0.9; stroke: #ef5350; stroke-opacity: 0.9; stroke-linejoin: miter"/>
     <use xlink:href="#mc81381a924" x="88.504253" y="208.75925" style="fill: #ef5350; fill-opacity: 0.9; stroke: #ef5350; stroke-opacity: 0.9; stroke-linejoin: miter"/>
     <use xlink:href="#mc81381a924" x="91.612004" y="200.096983" style="fill: #ef5350; fill-opacity: 0.9; stroke: #ef5350; stroke-opacity: 0.9; stroke-linejoin: miter"/>
     <use xlink:href="#mc81381a924" x="94.719754" y="202.26255" style="fill: #ef5350; fill-opacity: 0.9; stroke: #ef5350; stroke-opacity: 0.9; stroke-linejoin: miter"/>
     <use xlink:href="#mc81381a924" x="97.827505" y="204.428117" style="fill: #ef5350; fill-opacity: 0.9; stroke: #ef5350; stroke-opacity: 0.9; stroke-linejoin: miter"/>
     <use xlink:href="#mc81381a924" x="100.935255" y="221.75265" style="fill: #ef5350; fill-opacity: 0.9; stroke: #ef5350; stroke-opacity: 0.9; stroke-linejoin: miter"/>
     <use xlink:href="#mc81381a924" x="104.043006" y="238.806487" style="fill: #ef5350; fill-opacity: 0.9; stroke: #ef5350; stroke-opacity: 0.9; stroke-linejoin: miter"/>
     <use xlink:href="#mc81381a924" x="107.150756" y="212.0076" style="fill: #ef5350; fill-opacity: 0.9; stroke: #ef5350; stroke-opacity: 0.9; stroke-linejoin: miter"/>
     <use xlink:href="#mc81381a924" x="110.258507" y="250.717104" style="fill: #ef5350; fill-opacity: 0.9; stroke: #ef5350; stroke-opacity: 0.9; stroke-linejoin: miter"/>
     <use xlink:href="#mc81381a924" x="113.366257" y="248.551537" style="fill: #ef5350; fill-opacity: 0.9; stroke: #ef5350; stroke-opacity: 0.9; stroke-linejoin: miter"/>
     <use xlink:href="#mc81381a924" x="116.474008" y="218.5043" style="fill: #ef5350; fill-opacity: 0.9; stroke: #ef5350; stroke-opacity: 0.9; stroke-linejoin: miter"/>
     <use xlink:href="#mc81381a924" x="119.581758" y="227.166567" style="fill: #ef5350; fill-opacity: 0.9; stroke: #ef5350; stroke-opacity: 0.9; stroke-linejoin: miter"/>
     <use xlink:href="#mc81381a924" x="122.689509" y="210.112729" style="fill: #ef5350; fill-opacity: 0.9; stroke: #ef5350; stroke-opacity: 0.9; stroke-linejoin: miter"/>
     <use xlink:href="#mc81381a924" x="125.797259" y="188.727758" style="fill: #ef5350; fill-opacity: 0.9; stroke: #ef5350; stroke-opacity: 0.9; stroke-linejoin: miter"/>
     <use xlink:href="#mc81381a924" x="128.90501" y="197.119329" style="fill: #ef5350; fill-opacity: 0.9; stroke: #ef5350; stroke-opacity: 0.9; stroke-linejoin: miter"/>
     <use xlink:href="#mc81381a924" x="132.01276" y="212.0076" style="fill: #ef5350; fill-opacity: 0.9; stroke: #ef5350; stroke-opacity: 0.9; stroke-linejoin: miter"/>
     <use xlink:href="#mc81381a924" x="135.120511" y="197.119329" style="fill: #ef5350; fill-opacity: 0.9; stroke: #ef5350; stroke-opacity: 0.9; stroke-linejoin: miter"/>
     <use xlink:href="#mc81381a924" x="138.228261" y="214.173167" style="fill: #ef5350; fill-opacity: 0.9; stroke: #ef5350; stroke-opacity: 0.9; stroke-linejoin: miter"/>
     <use xlink:href="#mc81381a924" x="141.336012" y="165.177221" style="fill: #ef5350; fill-opacity: 0.9; stroke: #ef5350; stroke-opacity: 0.9; stroke-linejoin: miter"/>
     <use xlink:href="#mc81381a924" x="144.443762" y="227.166567" style="fill: #ef5350; fill-opacity: 0.9; stroke: #ef5350; stroke-opacity: 0.9; stroke-linejoin: miter"/>
     <use xlink:href="#mc81381a924" x="144.754537" y="214.173167" style="fill: #ef5350; fill-opacity: 0.9; stroke: #ef5350; stroke-opacity: 0.9; stroke-linejoin: miter"/>
     <use xlink:href="#mc81381a924" x="147.551513" y="168.154875" style="fill: #ef5350; fill-opacity: 0.9; stroke: #ef5350; stroke-opacity: 0.9; stroke-linejoin: miter"/>
     <use xlink:href="#mc81381a924" x="150.659263" y="165.989308" style="fill: #ef5350; fill-opacity: 0.9; stroke: #ef5350; stroke-opacity: 0.9; stroke-linejoin: miter"/>
     <use xlink:href="#mc81381a924" x="153.767014" y="163.823742" style="fill: #ef5350; fill-opacity: 0.9; stroke: #ef5350; stroke-opacity: 0.9; stroke-linejoin: miter"/>
     <use xlink:href="#mc81381a924" x="156.874764" y="173.568792" style="fill: #ef5350; fill-opacity: 0.9; stroke: #ef5350; stroke-opacity: 0.9; stroke-linejoin: miter"/>
     <use xlink:href="#mc81381a924" x="159.982515" y="183.043146" style="fill: #ef5350; fill-opacity: 0.9; stroke: #ef5350; stroke-opacity: 0.9; stroke-linejoin: miter"/>
     <use xlink:href="#mc81381a924" x="163.090265" y="168.154875" style="fill: #ef5350; fill-opacity: 0.9; stroke: #ef5350; stroke-opacity: 0.9; stroke-linejoin: miter"/>
     <use xlink:href="#mc81381a924" x="166.198015" y="153.266604" style="fill: #ef5350; fill-opacity: 0.9; stroke: #ef5350; stroke-opacity: 0.9; stroke-linejoin: miter"/>
     <use xlink:href="#mc81381a924" x="169.305766" y="155.432171" style="fill: #ef5350; fill-opacity: 0.9; stroke: #ef5350; stroke-opacity: 0.9; stroke-linejoin: miter"/>
     <use xlink:href="#mc81381a924" x="172.413516" y="157.597737" style="fill: #ef5350; fill-opacity: 0.9; stroke: #ef5350; stroke-opacity: 0.9; stroke-linejoin: miter"/>
     <use xlink:href="#mc81381a924" x="175.521267" y="159.763304" style="fill: #ef5350; fill-opacity: 0.9; stroke: #ef5350; stroke-opacity: 0.9; stroke-linejoin: miter"/>
     <use xlink:href="#mc81381a924" x="178.629017" y="163.011654" style="fill: #ef5350; fill-opacity: 0.9; stroke: #ef5350; stroke-opacity: 0.9; stroke-linejoin: miter"/>
     <use xlink:href="#mc81381a924" x="181.736768" y="148.123383" style="fill: #ef5350; fill-opacity: 0.9; stroke: #ef5350; stroke-opacity: 0.9; stroke-linejoin: miter"/>
     <use xlink:href="#mc81381a924" x="184.844518" y="150.28895" style="fill: #ef5350; fill-opacity: 0.9; stroke: #ef5350; stroke-opacity: 0.9; stroke-linejoin: miter"/>
     <use xlink:href="#mc81381a924" x="187.330719" y="184.396625" style="fill: #ef5350; fill-opacity: 0.9; stroke: #ef5350; stroke-opacity: 0.9; stroke-linejoin: miter"/>
     <use xlink:href="#mc81381a924" x="191.060019" y="180.065492" style="fill: #ef5350; fill-opacity: 0.9; stroke: #ef5350; stroke-opacity: 0.9; stroke-linejoin: miter"/>
     <use xlink:href="#mc81381a924" x="194.16777" y="152.183821" style="fill: #ef5350; fill-opacity: 0.9; stroke: #ef5350; stroke-opacity: 0.9; stroke-linejoin: miter"/>
     <use xlink:href="#mc81381a924" x="197.27552" y="150.28895" style="fill: #ef5350; fill-opacity: 0.9; stroke: #ef5350; stroke-opacity: 0.9; stroke-linejoin: miter"/>
     <use xlink:href="#mc81381a924" x="198.829396" y="124.572846" style="fill: #ef5350; fill-opacity: 0.9; stroke: #ef5350; stroke-opacity: 0.9; stroke-linejoin: miter"/>
     <use xlink:href="#mc81381a924" x="203.491021" y="152.183821" style="fill: #ef5350; fill-opacity: 0.9; stroke: #ef5350; stroke-opacity: 0.9; stroke-linejoin: miter"/>
     <use xlink:href="#mc81381a924" x="206.598772" y="177.899925" style="fill: #ef5350; fill-opacity: 0.9; stroke: #ef5350; stroke-opacity: 0.9; stroke-linejoin: miter"/>
     <use xlink:href="#mc81381a924" x="208.152647" y="163.011654" style="fill: #ef5350; fill-opacity: 0.9; stroke: #ef5350; stroke-opacity: 0.9; stroke-linejoin: miter"/>
     <use xlink:href="#mc81381a924" x="212.814273" y="173.568792" style="fill: #ef5350; fill-opacity: 0.9; stroke: #ef5350; stroke-opacity: 0.9; stroke-linejoin: miter"/>
     <use xlink:href="#mc81381a924" x="215.922023" y="141.626683" style="fill: #ef5350; fill-opacity: 0.9; stroke: #ef5350; stroke-opacity: 0.9; stroke-linejoin: miter"/>
     <use xlink:href="#mc81381a924" x="219.029774" y="177.899925" style="fill: #ef5350; fill-opacity: 0.9; stroke: #ef5350; stroke-opacity: 0.9; stroke-linejoin: miter"/>
     <use xlink:href="#mc81381a924" x="220.583649" y="175.734358" style="fill: #ef5350; fill-opacity: 0.9; stroke: #ef5350; stroke-opacity: 0.9; stroke-linejoin: miter"/>
    </g>
   </g>
   <g id="line2d_28">
    <path d="M 67.37155 350.062475 
L 67.9931 352.228042 
L 68.61465 369.281879 
L 69.2362 386.335717 
L 69.85775 333.008637 
L 70.479301 292.404262 
L 71.100851 313.789233 
L 71.722401 315.9548 
L 72.343951 326.511937 
L 72.965501 273.996946 
L 79.181002 280.493646 
L 85.396503 248.551537 
L 91.612004 231.227004 
L 97.827505 235.558137 
L 104.043006 269.936508 
L 110.258507 216.338733 
L 116.474008 265.605375 
L 122.689509 220.669867 
L 128.90501 210.112729 
L 135.120511 218.5043 
L 141.336012 205.781596 
L 147.551513 199.284896 
L 153.767014 194.953762 
L 159.982515 214.173167 
L 166.198015 184.396625 
L 172.413516 190.893325 
L 178.629017 190.893325 
L 184.844518 194.141675 
L 191.060019 183.313842 
L 197.27552 205.781596 
L 203.491021 192.788196 
L 209.706522 248.551537 
L 215.922023 252.611975 
L 222.137524 225.001 
L 228.353025 188.727758 
L 234.568526 235.558137 
" clip-path="url(#pa8b4df5c22)" style="fill: none; stroke: #b71c1c; stroke-opacity: 0.9; stroke-width: 1.8; stroke-linecap: round"/>
    <defs>
     <path id="mdd5ad2d139" d="M -0 3.535534 
L 3.535534 0 
L 0 -3.535534 
L -3.535534 -0 
z
" style="stroke: #b71c1c; stroke-opacity: 0.9; stroke-linejoin: miter"/>
    </defs>
    <g clip-path="url(#pa8b4df5c22)">
     <use xlink:href="#mdd5ad2d139" x="67.37155" y="350.062475" style="fill: #b71c1c; fill-opacity: 0.9; stroke: #b71c1c; stroke-opacity: 0.9; stroke-linejoin: miter"/>
     <use xlink:href="#mdd5ad2d139" x="67.9931" y="352.228042" style="fill: #b71c1c; fill-opacity: 0.9; stroke: #b71c1c; stroke-opacity: 0.9; stroke-linejoin: miter"/>
     <use xlink:href="#mdd5ad2d139" x="68.61465" y="369.281879" style="fill: #b71c1c; fill-opacity: 0.9; stroke: #b71c1c; stroke-opacity: 0.9; stroke-linejoin: miter"/>
     <use xlink:href="#mdd5ad2d139" x="69.2362" y="386.335717" style="fill: #b71c1c; fill-opacity: 0.9; stroke: #b71c1c; stroke-opacity: 0.9; stroke-linejoin: miter"/>
     <use xlink:href="#mdd5ad2d139" x="69.85775" y="333.008637" style="fill: #b71c1c; fill-opacity: 0.9; stroke: #b71c1c; stroke-opacity: 0.9; stroke-linejoin: miter"/>
     <use xlink:href="#mdd5ad2d139" x="70.479301" y="292.404262" style="fill: #b71c1c; fill-opacity: 0.9; stroke: #b71c1c; stroke-opacity: 0.9; stroke-linejoin: miter"/>
     <use xlink:href="#mdd5ad2d139" x="71.100851" y="313.789233" style="fill: #b71c1c; fill-opacity: 0.9; stroke: #b71c1c; stroke-opacity: 0.9; stroke-linejoin: miter"/>
     <use xlink:href="#mdd5ad2d139" x="71.722401" y="315.9548" style="fill: #b71c1c; fill-opacity: 0.9; stroke: #b71c1c; stroke-opacity: 0.9; stroke-linejoin: miter"/>
     <use xlink:href="#mdd5ad2d139" x="72.343951" y="326.511937" style="fill: #b71c1c; fill-opacity: 0.9; stroke: #b71c1c; stroke-opacity: 0.9; stroke-linejoin: miter"/>
     <use xlink:href="#mdd5ad2d139" x="72.965501" y="273.996946" style="fill: #b71c1c; fill-opacity: 0.9; stroke: #b71c1c; stroke-opacity: 0.9; stroke-linejoin: miter"/>
     <use xlink:href="#mdd5ad2d139" x="79.181002" y="280.493646" style="fill: #b71c1c; fill-opacity: 0.9; stroke: #b71c1c; stroke-opacity: 0.9; stroke-linejoin: miter"/>
     <use xlink:href="#mdd5ad2d139" x="85.396503" y="248.551537" style="fill: #b71c1c; fill-opacity: 0.9; stroke: #b71c1c; stroke-opacity: 0.9; stroke-linejoin: miter"/>
     <use xlink:href="#mdd5ad2d139" x="91.612004" y="231.227004" style="fill: #b71c1c; fill-opacity: 0.9; stroke: #b71c1c; stroke-opacity: 0.9; stroke-linejoin: miter"/>
     <use xlink:href="#mdd5ad2d139" x="97.827505" y="235.558137" style="fill: #b71c1c; fill-opacity: 0.9; stroke: #b71c1c; stroke-opacity: 0.9; stroke-linejoin: miter"/>
     <use xlink:href="#mdd5ad2d139" x="104.043006" y="269.936508" style="fill: #b71c1c; fill-opacity: 0.9; stroke: #b71c1c; stroke-opacity: 0.9; stroke-linejoin: miter"/>
     <use xlink:href="#mdd5ad2d139" x="110.258507" y="216.338733" style="fill: #b71c1c; fill-opacity: 0.9; stroke: #b71c1c; stroke-opacity: 0.9; stroke-linejoin: miter"/>
     <use xlink:href="#mdd5ad2d139" x="116.474008" y="265.605375" style="fill: #b71c1c; fill-opacity: 0.9; stroke: #b71c1c; stroke-opacity: 0.9; stroke-linejoin: miter"/>
     <use xlink:href="#mdd5ad2d139" x="122.689509" y="220.669867" style="fill: #b71c1c; fill-opacity: 0.9; stroke: #b71c1c; stroke-opacity: 0.9; stroke-linejoin: miter"/>
     <use xlink:href="#mdd5ad2d139" x="128.90501" y="210.112729" style="fill: #b71c1c; fill-opacity: 0.9; stroke: #b71c1c; stroke-opacity: 0.9; stroke-linejoin: miter"/>
     <use xlink:href="#mdd5ad2d139" x="135.120511" y="218.5043" style="fill: #b71c1c; fill-opacity: 0.9; stroke: #b71c1c; stroke-opacity: 0.9; stroke-linejoin: miter"/>
     <use xlink:href="#mdd5ad2d139" x="141.336012" y="205.781596" style="fill: #b71c1c; fill-opacity: 0.9; stroke: #b71c1c; stroke-opacity: 0.9; stroke-linejoin: miter"/>
     <use xlink:href="#mdd5ad2d139" x="147.551513" y="199.284896" style="fill: #b71c1c; fill-opacity: 0.9; stroke: #b71c1c; stroke-opacity: 0.9; stroke-linejoin: miter"/>
     <use xlink:href="#mdd5ad2d139" x="153.767014" y="194.953762" style="fill: #b71c1c; fill-opacity: 0.9; stroke: #b71c1c; stroke-opacity: 0.9; stroke-linejoin: miter"/>
     <use xlink:href="#mdd5ad2d139" x="159.982515" y="214.173167" style="fill: #b71c1c; fill-opacity: 0.9; stroke: #b71c1c; stroke-opacity: 0.9; stroke-linejoin: miter"/>
     <use xlink:href="#mdd5ad2d139" x="166.198015" y="184.396625" style="fill: #b71c1c; fill-opacity: 0.9; stroke: #b71c1c; stroke-opacity: 0.9; stroke-linejoin: miter"/>
     <use xlink:href="#mdd5ad2d139" x="172.413516" y="190.893325" style="fill: #b71c1c; fill-opacity: 0.9; stroke: #b71c1c; stroke-opacity: 0.9; stroke-linejoin: miter"/>
     <use xlink:href="#mdd5ad2d139" x="178.629017" y="190.893325" style="fill: #b71c1c; fill-opacity: 0.9; stroke: #b71c1c; stroke-opacity: 0.9; stroke-linejoin: miter"/>
     <use xlink:href="#mdd5ad2d139" x="184.844518" y="194.141675" style="fill: #b71c1c; fill-opacity: 0.9; stroke: #b71c1c; stroke-opacity: 0.9; stroke-linejoin: miter"/>
     <use xlink:href="#mdd5ad2d139" x="191.060019" y="183.313842" style="fill: #b71c1c; fill-opacity: 0.9; stroke: #b71c1c; stroke-opacity: 0.9; stroke-linejoin: miter"/>
     <use xlink:href="#mdd5ad2d139" x="197.27552" y="205.781596" style="fill: #b71c1c; fill-opacity: 0.9; stroke: #b71c1c; stroke-opacity: 0.9; stroke-linejoin: miter"/>
     <use xlink:href="#mdd5ad2d139" x="203.491021" y="192.788196" style="fill: #b71c1c; fill-opacity: 0.9; stroke: #b71c1c; stroke-opacity: 0.9; stroke-linejoin: miter"/>
     <use xlink:href="#mdd5ad2d139" x="209.706522" y="248.551537" style="fill: #b71c1c; fill-opacity: 0.9; stroke: #b71c1c; stroke-opacity: 0.9; stroke-linejoin: miter"/>
     <use xlink:href="#mdd5ad2d139" x="215.922023" y="252.611975" style="fill: #b71c1c; fill-opacity: 0.9; stroke: #b71c1c; stroke-opacity: 0.9; stroke-linejoin: miter"/>
     <use xlink:href="#mdd5ad2d139" x="222.137524" y="225.001" style="fill: #b71c1c; fill-opacity: 0.9; stroke: #b71c1c; stroke-opacity: 0.9; stroke-linejoin: miter"/>
     <use xlink:href="#mdd5ad2d139" x="228.353025" y="188.727758" style="fill: #b71c1c; fill-opacity: 0.9; stroke: #b71c1c; stroke-opacity: 0.9; stroke-linejoin: miter"/>
     <use xlink:href="#mdd5ad2d139" x="234.568526" y="235.558137" style="fill: #b71c1c; fill-opacity: 0.9; stroke: #b71c1c; stroke-opacity: 0.9; stroke-linejoin: miter"/>
    </g>
   </g>
  </g>
 </g>
 <defs>
  <clipPath id="pa8b4df5c22">
   <rect x="66.75" y="30.1" width="475.44" height="324.835"/>
  </clipPath>
 </defs>
</svg>
