<?xml version="1.0" encoding="utf-8"?>
<svg xmlns="http://www.w3.org/2000/svg" viewBox="0 0 1280 720" width="1280" height="720" font-family="'mIosevka-QP Web','Iosevka Web','JetBrains Mono',Menlo,monospace">
<rect width="1280" height="720" fill="#ffffff"/>
<text x="640" y="34" text-anchor="middle" font-family="'mIosevka-QP Web','Iosevka Web','JetBrains Mono',Menlo,monospace" font-size="20" font-weight="700" fill="#333">AuroraGPT-2B × tulu_math_uc_mix SFT trajectory</text><text x="640" y="56" text-anchor="middle" font-family="'mIosevka-QP Web','Iosevka Web','JetBrains Mono',Menlo,monospace" font-size="13" fill="#888">step 720, 3 epochs, 32N, GBS=6144 · final loss 0.77 · 4.49B tokens (cumulative)</text><text x="213.33333333333334" y="93" text-anchor="middle" font-family="'mIosevka-QP Web','Iosevka Web','JetBrains Mono',Menlo,monospace" font-size="17" fill="#444">loss</text><rect x="78" y="102" width="312.6666666666667" height="214" fill="none" stroke="#d8d8d8" stroke-width="1"/><line x1="78" y1="316" x2="390.6666666666667" y2="316" stroke="#f0f0f0" stroke-width="1"/><text x="72" y="320" text-anchor="end" font-family="'mIosevka-QP Web','Iosevka Web','JetBrains Mono',Menlo,monospace" font-size="11" fill="#999">0.733</text><line x1="78" y1="262.5" x2="390.6666666666667" y2="262.5" stroke="#f0f0f0" stroke-width="1"/><text x="72" y="266.5" text-anchor="end" font-family="'mIosevka-QP Web','Iosevka Web','JetBrains Mono',Menlo,monospace" font-size="11" fill="#999">0.845</text><line x1="78" y1="208.99999999999997" x2="390.6666666666667" y2="208.99999999999997" stroke="#f0f0f0" stroke-width="1"/><text x="72" y="212.99999999999997" text-anchor="end" font-family="'mIosevka-QP Web','Iosevka Web','JetBrains Mono',Menlo,monospace" font-size="11" fill="#999">0.958</text><line x1="78" y1="155.50000000000006" x2="390.6666666666667" y2="155.50000000000006" stroke="#f0f0f0" stroke-width="1"/><text x="72" y="159.50000000000006" text-anchor="end" font-family="'mIosevka-QP Web','Iosevka Web','JetBrains Mono',Menlo,monospace" font-size="11" fill="#999">1.07</text><line x1="78" y1="102" x2="390.6666666666667" y2="102" stroke="#f0f0f0" stroke-width="1"/><text x="72" y="106" text-anchor="end" font-family="'mIosevka-QP Web','Iosevka Web','JetBrains Mono',Menlo,monospace" font-size="11" fill="#999">1.183</text><line x1="78" y1="316" x2="78" y2="320" stroke="#aaa" stroke-width="1"/><text x="78" y="333" text-anchor="middle" font-family="'mIosevka-QP Web','Iosevka Web','JetBrains Mono',Menlo,monospace" font-size="11" fill="#999">10</text><line x1="156.16666666666669" y1="316" x2="156.16666666666669" y2="320" stroke="#aaa" stroke-width="1"/><text x="156.16666666666669" y="333" text-anchor="middle" font-family="'mIosevka-QP Web','Iosevka Web','JetBrains Mono',Menlo,monospace" font-size="11" fill="#999">188</text><line x1="234.33333333333334" y1="316" x2="234.33333333333334" y2="320" stroke="#aaa" stroke-width="1"/><text x="234.33333333333334" y="333" text-anchor="middle" font-family="'mIosevka-QP Web','Iosevka Web','JetBrains Mono',Menlo,monospace" font-size="11" fill="#999">365</text><line x1="312.5" y1="316" x2="312.5" y2="320" stroke="#aaa" stroke-width="1"/><text x="312.5" y="333" text-anchor="middle" font-family="'mIosevka-QP Web','Iosevka Web','JetBrains Mono',Menlo,monospace" font-size="11" fill="#999">543</text><line x1="390.6666666666667" y1="316" x2="390.6666666666667" y2="320" stroke="#aaa" stroke-width="1"/><text x="390.6666666666667" y="333" text-anchor="middle" font-family="'mIosevka-QP Web','Iosevka Web','JetBrains Mono',Menlo,monospace" font-size="11" fill="#999">720</text><text x="234.33333333333334" y="345" text-anchor="middle" font-family="'mIosevka-QP Web','Iosevka Web','JetBrains Mono',Menlo,monospace" font-size="11" fill="#888">global step</text><path d="M78.0 116.8 L82.4 191.0 L86.8 209.3 L91.2 219.0 L95.6 226.3 L100.0 233.4 L104.4 237.3 L108.8 239.9 L113.2 241.5 L117.6 246.8 L122.0 231.9 L126.4 245.4 L130.8 251.2 L135.2 255.5 L139.7 255.4 L144.1 254.9 L148.5 257.7 L152.9 260.5 L157.3 262.2 L161.7 261.8 L166.1 256.9 L170.5 263.9 L174.9 265.9 L179.3 265.9 L183.7 273.3 L188.1 276.6 L192.5 277.3 L196.9 277.0 L201.3 277.4 L205.7 278.5 L210.1 272.0 L214.5 279.6 L218.9 281.4 L223.3 279.7 L227.7 279.5 L232.1 283.6 L236.5 282.1 L240.9 283.5 L245.3 282.8 L249.7 285.7 L254.2 283.4 L258.6 283.7 L263.0 282.2 L267.4 288.8 L271.8 286.7 L276.2 285.9 L280.6 287.2 L285.0 289.5 L289.4 291.2 L293.8 293.8 L298.2 292.5 L302.6 293.1 L307.0 295.3 L311.4 294.9 L315.8 292.8 L320.2 296.4 L324.6 298.2 L329.0 295.7 L333.4 297.5 L337.8 298.3 L342.2 296.5 L346.6 294.1 L351.0 294.4 L355.4 294.7 L359.8 299.8 L364.2 295.8 L368.6 297.0 L373.1 301.2 L377.5 298.3 L381.9 300.2 L386.3 297.6 L390.7 296.1" fill="none" stroke="#118cc2" stroke-width="2"/><circle cx="78.0" cy="116.8" r="2" fill="#118cc2"/><circle cx="82.4" cy="191.0" r="2" fill="#118cc2"/><circle cx="86.8" cy="209.3" r="2" fill="#118cc2"/><circle cx="91.2" cy="219.0" r="2" fill="#118cc2"/><circle cx="95.6" cy="226.3" r="2" fill="#118cc2"/><circle cx="100.0" cy="233.4" r="2" fill="#118cc2"/><circle cx="104.4" cy="237.3" r="2" fill="#118cc2"/><circle cx="108.8" cy="239.9" r="2" fill="#118cc2"/><circle cx="113.2" cy="241.5" r="2" fill="#118cc2"/><circle cx="117.6" cy="246.8" r="2" fill="#118cc2"/><circle cx="122.0" cy="231.9" r="2" fill="#118cc2"/><circle cx="126.4" cy="245.4" r="2" fill="#118cc2"/><circle cx="130.8" cy="251.2" r="2" fill="#118cc2"/><circle cx="135.2" cy="255.5" r="2" fill="#118cc2"/><circle cx="139.7" cy="255.4" r="2" fill="#118cc2"/><circle cx="144.1" cy="254.9" r="2" fill="#118cc2"/><circle cx="148.5" cy="257.7" r="2" fill="#118cc2"/><circle cx="152.9" cy="260.5" r="2" fill="#118cc2"/><circle cx="157.3" cy="262.2" r="2" fill="#118cc2"/><circle cx="161.7" cy="261.8" r="2" fill="#118cc2"/><circle cx="166.1" cy="256.9" r="2" fill="#118cc2"/><circle cx="170.5" cy="263.9" r="2" fill="#118cc2"/><circle cx="174.9" cy="265.9" r="2" fill="#118cc2"/><circle cx="179.3" cy="265.9" r="2" fill="#118cc2"/><circle cx="183.7" cy="273.3" r="2" fill="#118cc2"/><circle cx="188.1" cy="276.6" r="2" fill="#118cc2"/><circle cx="192.5" cy="277.3" r="2" fill="#118cc2"/><circle cx="196.9" cy="277.0" r="2" fill="#118cc2"/><circle cx="201.3" cy="277.4" r="2" fill="#118cc2"/><circle cx="205.7" cy="278.5" r="2" fill="#118cc2"/><circle cx="210.1" cy="272.0" r="2" fill="#118cc2"/><circle cx="214.5" cy="279.6" r="2" fill="#118cc2"/><circle cx="218.9" cy="281.4" r="2" fill="#118cc2"/><circle cx="223.3" cy="279.7" r="2" fill="#118cc2"/><circle cx="227.7" cy="279.5" r="2" fill="#118cc2"/><circle cx="232.1" cy="283.6" r="2" fill="#118cc2"/><circle cx="236.5" cy="282.1" r="2" fill="#118cc2"/><circle cx="240.9" cy="283.5" r="2" fill="#118cc2"/><circle cx="245.3" cy="282.8" r="2" fill="#118cc2"/><circle cx="249.7" cy="285.7" r="2" fill="#118cc2"/><circle cx="254.2" cy="283.4" r="2" fill="#118cc2"/><circle cx="258.6" cy="283.7" r="2" fill="#118cc2"/><circle cx="263.0" cy="282.2" r="2" fill="#118cc2"/><circle cx="267.4" cy="288.8" r="2" fill="#118cc2"/><circle cx="271.8" cy="286.7" r="2" fill="#118cc2"/><circle cx="276.2" cy="285.9" r="2" fill="#118cc2"/><circle cx="280.6" cy="287.2" r="2" fill="#118cc2"/><circle cx="285.0" cy="289.5" r="2" fill="#118cc2"/><circle cx="289.4" cy="291.2" r="2" fill="#118cc2"/><circle cx="293.8" cy="293.8" r="2" fill="#118cc2"/><circle cx="298.2" cy="292.5" r="2" fill="#118cc2"/><circle cx="302.6" cy="293.1" r="2" fill="#118cc2"/><circle cx="307.0" cy="295.3" r="2" fill="#118cc2"/><circle cx="311.4" cy="294.9" r="2" fill="#118cc2"/><circle cx="315.8" cy="292.8" r="2" fill="#118cc2"/><circle cx="320.2" cy="296.4" r="2" fill="#118cc2"/><circle cx="324.6" cy="298.2" r="2" fill="#118cc2"/><circle cx="329.0" cy="295.7" r="2" fill="#118cc2"/><circle cx="333.4" cy="297.5" r="2" fill="#118cc2"/><circle cx="337.8" cy="298.3" r="2" fill="#118cc2"/><circle cx="342.2" cy="296.5" r="2" fill="#118cc2"/><circle cx="346.6" cy="294.1" r="2" fill="#118cc2"/><circle cx="351.0" cy="294.4" r="2" fill="#118cc2"/><circle cx="355.4" cy="294.7" r="2" fill="#118cc2"/><circle cx="359.8" cy="299.8" r="2" fill="#118cc2"/><circle cx="364.2" cy="295.8" r="2" fill="#118cc2"/><circle cx="368.6" cy="297.0" r="2" fill="#118cc2"/><circle cx="373.1" cy="301.2" r="2" fill="#118cc2"/><circle cx="377.5" cy="298.3" r="2" fill="#118cc2"/><circle cx="381.9" cy="300.2" r="2" fill="#118cc2"/><circle cx="386.3" cy="297.6" r="2" fill="#118cc2"/><circle cx="390.7" cy="296.1" r="2" fill="#118cc2"/><text x="640" y="93" text-anchor="middle" font-family="'mIosevka-QP Web','Iosevka Web','JetBrains Mono',Menlo,monospace" font-size="17" fill="#444">grad_norm</text><rect x="504.6666666666667" y="102" width="312.6666666666667" height="214" fill="none" stroke="#d8d8d8" stroke-width="1"/><line x1="504.6666666666667" y1="316" x2="817.3333333333334" y2="316" stroke="#f0f0f0" stroke-width="1"/><text x="498.6666666666667" y="320" text-anchor="end" font-family="'mIosevka-QP Web','Iosevka Web','JetBrains Mono',Menlo,monospace" font-size="11" fill="#999">0.138</text><line x1="504.6666666666667" y1="262.5" x2="817.3333333333334" y2="262.5" stroke="#f0f0f0" stroke-width="1"/><text x="498.6666666666667" y="266.5" text-anchor="end" font-family="'mIosevka-QP Web','Iosevka Web','JetBrains Mono',Menlo,monospace" font-size="11" fill="#999">0.299</text><line x1="504.6666666666667" y1="209" x2="817.3333333333334" y2="209" stroke="#f0f0f0" stroke-width="1"/><text x="498.6666666666667" y="213" text-anchor="end" font-family="'mIosevka-QP Web','Iosevka Web','JetBrains Mono',Menlo,monospace" font-size="11" fill="#999">0.46</text><line x1="504.6666666666667" y1="155.50000000000003" x2="817.3333333333334" y2="155.50000000000003" stroke="#f0f0f0" stroke-width="1"/><text x="498.6666666666667" y="159.50000000000003" text-anchor="end" font-family="'mIosevka-QP Web','Iosevka Web','JetBrains Mono',Menlo,monospace" font-size="11" fill="#999">0.621</text><line x1="504.6666666666667" y1="102" x2="817.3333333333334" y2="102" stroke="#f0f0f0" stroke-width="1"/><text x="498.6666666666667" y="106" text-anchor="end" font-family="'mIosevka-QP Web','Iosevka Web','JetBrains Mono',Menlo,monospace" font-size="11" fill="#999">0.783</text><line x1="504.6666666666667" y1="316" x2="504.6666666666667" y2="320" stroke="#aaa" stroke-width="1"/><text x="504.6666666666667" y="333" text-anchor="middle" font-family="'mIosevka-QP Web','Iosevka Web','JetBrains Mono',Menlo,monospace" font-size="11" fill="#999">10</text><line x1="582.8333333333334" y1="316" x2="582.8333333333334" y2="320" stroke="#aaa" stroke-width="1"/><text x="582.8333333333334" y="333" text-anchor="middle" font-family="'mIosevka-QP Web','Iosevka Web','JetBrains Mono',Menlo,monospace" font-size="11" fill="#999">188</text><line x1="661" y1="316" x2="661" y2="320" stroke="#aaa" stroke-width="1"/><text x="661" y="333" text-anchor="middle" font-family="'mIosevka-QP Web','Iosevka Web','JetBrains Mono',Menlo,monospace" font-size="11" fill="#999">365</text><line x1="739.1666666666667" y1="316" x2="739.1666666666667" y2="320" stroke="#aaa" stroke-width="1"/><text x="739.1666666666667" y="333" text-anchor="middle" font-family="'mIosevka-QP Web','Iosevka Web','JetBrains Mono',Menlo,monospace" font-size="11" fill="#999">543</text><line x1="817.3333333333334" y1="316" x2="817.3333333333334" y2="320" stroke="#aaa" stroke-width="1"/><text x="817.3333333333334" y="333" text-anchor="middle" font-family="'mIosevka-QP Web','Iosevka Web','JetBrains Mono',Menlo,monospace" font-size="11" fill="#999">720</text><text x="661" y="345" text-anchor="middle" font-family="'mIosevka-QP Web','Iosevka Web','JetBrains Mono',Menlo,monospace" font-size="11" fill="#888">global step</text><path d="M504.7 116.8 L509.1 229.9 L513.5 260.7 L517.9 281.5 L522.3 280.6 L526.7 282.8 L531.1 285.6 L535.5 282.8 L539.9 274.2 L544.3 272.9 L548.7 185.1 L553.1 254.5 L557.5 279.1 L561.9 289.0 L566.3 293.9 L570.7 280.5 L575.1 286.9 L579.5 291.6 L583.9 280.2 L588.3 281.8 L592.7 227.5 L597.1 267.6 L601.5 284.0 L606.0 285.1 L610.4 286.7 L614.8 287.9 L619.2 281.8 L623.6 289.7 L628.0 282.1 L632.4 286.6 L636.8 223.6 L641.2 259.6 L645.6 278.6 L650.0 287.4 L654.4 288.0 L658.8 292.4 L663.2 292.0 L667.6 294.5 L672.0 286.2 L676.4 290.8 L680.8 230.8 L685.2 270.3 L689.6 288.2 L694.0 283.7 L698.4 294.9 L702.8 292.8 L707.2 295.6 L711.6 295.4 L716.0 292.0 L720.5 292.3 L724.9 246.1 L729.3 271.4 L733.7 289.0 L738.1 282.7 L742.5 293.2 L746.9 293.3 L751.3 298.8 L755.7 294.6 L760.1 295.6 L764.5 294.7 L768.9 286.2 L773.3 291.2 L777.7 294.4 L782.1 294.1 L786.5 297.0 L790.9 297.3 L795.3 292.1 L799.7 299.4 L804.1 297.8 L808.5 298.1 L812.9 299.6 L817.3 301.2" fill="none" stroke="#ee8f24" stroke-width="2"/><circle cx="504.7" cy="116.8" r="2" fill="#ee8f24"/><circle cx="509.1" cy="229.9" r="2" fill="#ee8f24"/><circle cx="513.5" cy="260.7" r="2" fill="#ee8f24"/><circle cx="517.9" cy="281.5" r="2" fill="#ee8f24"/><circle cx="522.3" cy="280.6" r="2" fill="#ee8f24"/><circle cx="526.7" cy="282.8" r="2" fill="#ee8f24"/><circle cx="531.1" cy="285.6" r="2" fill="#ee8f24"/><circle cx="535.5" cy="282.8" r="2" fill="#ee8f24"/><circle cx="539.9" cy="274.2" r="2" fill="#ee8f24"/><circle cx="544.3" cy="272.9" r="2" fill="#ee8f24"/><circle cx="548.7" cy="185.1" r="2" fill="#ee8f24"/><circle cx="553.1" cy="254.5" r="2" fill="#ee8f24"/><circle cx="557.5" cy="279.1" r="2" fill="#ee8f24"/><circle cx="561.9" cy="289.0" r="2" fill="#ee8f24"/><circle cx="566.3" cy="293.9" r="2" fill="#ee8f24"/><circle cx="570.7" cy="280.5" r="2" fill="#ee8f24"/><circle cx="575.1" cy="286.9" r="2" fill="#ee8f24"/><circle cx="579.5" cy="291.6" r="2" fill="#ee8f24"/><circle cx="583.9" cy="280.2" r="2" fill="#ee8f24"/><circle cx="588.3" cy="281.8" r="2" fill="#ee8f24"/><circle cx="592.7" cy="227.5" r="2" fill="#ee8f24"/><circle cx="597.1" cy="267.6" r="2" fill="#ee8f24"/><circle cx="601.5" cy="284.0" r="2" fill="#ee8f24"/><circle cx="606.0" cy="285.1" r="2" fill="#ee8f24"/><circle cx="610.4" cy="286.7" r="2" fill="#ee8f24"/><circle cx="614.8" cy="287.9" r="2" fill="#ee8f24"/><circle cx="619.2" cy="281.8" r="2" fill="#ee8f24"/><circle cx="623.6" cy="289.7" r="2" fill="#ee8f24"/><circle cx="628.0" cy="282.1" r="2" fill="#ee8f24"/><circle cx="632.4" cy="286.6" r="2" fill="#ee8f24"/><circle cx="636.8" cy="223.6" r="2" fill="#ee8f24"/><circle cx="641.2" cy="259.6" r="2" fill="#ee8f24"/><circle cx="645.6" cy="278.6" r="2" fill="#ee8f24"/><circle cx="650.0" cy="287.4" r="2" fill="#ee8f24"/><circle cx="654.4" cy="288.0" r="2" fill="#ee8f24"/><circle cx="658.8" cy="292.4" r="2" fill="#ee8f24"/><circle cx="663.2" cy="292.0" r="2" fill="#ee8f24"/><circle cx="667.6" cy="294.5" r="2" fill="#ee8f24"/><circle cx="672.0" cy="286.2" r="2" fill="#ee8f24"/><circle cx="676.4" cy="290.8" r="2" fill="#ee8f24"/><circle cx="680.8" cy="230.8" r="2" fill="#ee8f24"/><circle cx="685.2" cy="270.3" r="2" fill="#ee8f24"/><circle cx="689.6" cy="288.2" r="2" fill="#ee8f24"/><circle cx="694.0" cy="283.7" r="2" fill="#ee8f24"/><circle cx="698.4" cy="294.9" r="2" fill="#ee8f24"/><circle cx="702.8" cy="292.8" r="2" fill="#ee8f24"/><circle cx="707.2" cy="295.6" r="2" fill="#ee8f24"/><circle cx="711.6" cy="295.4" r="2" fill="#ee8f24"/><circle cx="716.0" cy="292.0" r="2" fill="#ee8f24"/><circle cx="720.5" cy="292.3" r="2" fill="#ee8f24"/><circle cx="724.9" cy="246.1" r="2" fill="#ee8f24"/><circle cx="729.3" cy="271.4" r="2" fill="#ee8f24"/><circle cx="733.7" cy="289.0" r="2" fill="#ee8f24"/><circle cx="738.1" cy="282.7" r="2" fill="#ee8f24"/><circle cx="742.5" cy="293.2" r="2" fill="#ee8f24"/><circle cx="746.9" cy="293.3" r="2" fill="#ee8f24"/><circle cx="751.3" cy="298.8" r="2" fill="#ee8f24"/><circle cx="755.7" cy="294.6" r="2" fill="#ee8f24"/><circle cx="760.1" cy="295.6" r="2" fill="#ee8f24"/><circle cx="764.5" cy="294.7" r="2" fill="#ee8f24"/><circle cx="768.9" cy="286.2" r="2" fill="#ee8f24"/><circle cx="773.3" cy="291.2" r="2" fill="#ee8f24"/><circle cx="777.7" cy="294.4" r="2" fill="#ee8f24"/><circle cx="782.1" cy="294.1" r="2" fill="#ee8f24"/><circle cx="786.5" cy="297.0" r="2" fill="#ee8f24"/><circle cx="790.9" cy="297.3" r="2" fill="#ee8f24"/><circle cx="795.3" cy="292.1" r="2" fill="#ee8f24"/><circle cx="799.7" cy="299.4" r="2" fill="#ee8f24"/><circle cx="804.1" cy="297.8" r="2" fill="#ee8f24"/><circle cx="808.5" cy="298.1" r="2" fill="#ee8f24"/><circle cx="812.9" cy="299.6" r="2" fill="#ee8f24"/><circle cx="817.3" cy="301.2" r="2" fill="#ee8f24"/><text x="1066.6666666666667" y="93" text-anchor="middle" font-family="'mIosevka-QP Web','Iosevka Web','JetBrains Mono',Menlo,monospace" font-size="17" fill="#444">learning rate (×1e-5)</text><rect x="931.3333333333334" y="102" width="312.6666666666667" height="214" fill="none" stroke="#d8d8d8" stroke-width="1"/><line x1="931.3333333333334" y1="316" x2="1244" y2="316" stroke="#f0f0f0" stroke-width="1"/><text x="925.3333333333334" y="320" text-anchor="end" font-family="'mIosevka-QP Web','Iosevka Web','JetBrains Mono',Menlo,monospace" font-size="11" fill="#999">-0.16</text><line x1="931.3333333333334" y1="262.5" x2="1244" y2="262.5" stroke="#f0f0f0" stroke-width="1"/><text x="925.3333333333334" y="266.5" text-anchor="end" font-family="'mIosevka-QP Web','Iosevka Web','JetBrains Mono',Menlo,monospace" font-size="11" fill="#999">0.42</text><line x1="931.3333333333334" y1="209" x2="1244" y2="209" stroke="#f0f0f0" stroke-width="1"/><text x="925.3333333333334" y="213" text-anchor="end" font-family="'mIosevka-QP Web','Iosevka Web','JetBrains Mono',Menlo,monospace" font-size="11" fill="#999">1</text><line x1="931.3333333333334" y1="155.5" x2="1244" y2="155.5" stroke="#f0f0f0" stroke-width="1"/><text x="925.3333333333334" y="159.5" text-anchor="end" font-family="'mIosevka-QP Web','Iosevka Web','JetBrains Mono',Menlo,monospace" font-size="11" fill="#999">1.58</text><line x1="931.3333333333334" y1="102" x2="1244" y2="102" stroke="#f0f0f0" stroke-width="1"/><text x="925.3333333333334" y="106" text-anchor="end" font-family="'mIosevka-QP Web','Iosevka Web','JetBrains Mono',Menlo,monospace" font-size="11" fill="#999">2.16</text><line x1="931.3333333333334" y1="316" x2="931.3333333333334" y2="320" stroke="#aaa" stroke-width="1"/><text x="931.3333333333334" y="333" text-anchor="middle" font-family="'mIosevka-QP Web','Iosevka Web','JetBrains Mono',Menlo,monospace" font-size="11" fill="#999">10</text><line x1="1009.5" y1="316" x2="1009.5" y2="320" stroke="#aaa" stroke-width="1"/><text x="1009.5" y="333" text-anchor="middle" font-family="'mIosevka-QP Web','Iosevka Web','JetBrains Mono',Menlo,monospace" font-size="11" fill="#999">188</text><line x1="1087.6666666666667" y1="316" x2="1087.6666666666667" y2="320" stroke="#aaa" stroke-width="1"/><text x="1087.6666666666667" y="333" text-anchor="middle" font-family="'mIosevka-QP Web','Iosevka Web','JetBrains Mono',Menlo,monospace" font-size="11" fill="#999">365</text><line x1="1165.8333333333335" y1="316" x2="1165.8333333333335" y2="320" stroke="#aaa" stroke-width="1"/><text x="1165.8333333333335" y="333" text-anchor="middle" font-family="'mIosevka-QP Web','Iosevka Web','JetBrains Mono',Menlo,monospace" font-size="11" fill="#999">543</text><line x1="1244" y1="316" x2="1244" y2="320" stroke="#aaa" stroke-width="1"/><text x="1244" y="333" text-anchor="middle" font-family="'mIosevka-QP Web','Iosevka Web','JetBrains Mono',Menlo,monospace" font-size="11" fill="#999">720</text><text x="1087.6666666666667" y="345" text-anchor="middle" font-family="'mIosevka-QP Web','Iosevka Web','JetBrains Mono',Menlo,monospace" font-size="11" fill="#888">global step</text><path d="M931.3 116.8 L935.7 126.0 L940.1 126.0 L944.5 126.0 L948.9 126.0 L953.4 135.2 L957.8 135.2 L962.2 135.2 L966.6 135.2 L971.0 144.4 L975.4 144.4 L979.8 144.4 L984.2 153.7 L988.6 153.7 L993.0 153.7 L997.4 153.7 L1001.8 162.9 L1006.2 162.9 L1010.6 162.9 L1015.0 162.9 L1019.4 172.1 L1023.8 172.1 L1028.2 172.1 L1032.6 181.3 L1037.0 181.3 L1041.4 181.3 L1045.8 181.3 L1050.2 190.6 L1054.6 190.6 L1059.0 190.6 L1063.4 190.6 L1067.8 199.8 L1072.3 199.8 L1076.7 199.8 L1081.1 209.0 L1085.5 209.0 L1089.9 209.0 L1094.3 209.0 L1098.7 218.2 L1103.1 218.2 L1107.5 218.2 L1111.9 218.2 L1116.3 227.4 L1120.7 227.4 L1125.1 227.4 L1129.5 236.7 L1133.9 236.7 L1138.3 236.7 L1142.7 236.7 L1147.1 245.9 L1151.5 245.9 L1155.9 245.9 L1160.3 255.1 L1164.7 255.1 L1169.1 255.1 L1173.5 255.1 L1177.9 264.3 L1182.3 264.3 L1186.8 264.3 L1191.2 264.3 L1195.6 273.6 L1200.0 273.6 L1204.4 273.6 L1208.8 282.8 L1213.2 282.8 L1217.6 282.8 L1222.0 282.8 L1226.4 292.0 L1230.8 292.0 L1235.2 292.0 L1239.6 292.0 L1244.0 301.2" fill="none" stroke="#9a76ce" stroke-width="2"/><circle cx="931.3" cy="116.8" r="2" fill="#9a76ce"/><circle cx="935.7" cy="126.0" r="2" fill="#9a76ce"/><circle cx="940.1" cy="126.0" r="2" fill="#9a76ce"/><circle cx="944.5" cy="126.0" r="2" fill="#9a76ce"/><circle cx="948.9" cy="126.0" r="2" fill="#9a76ce"/><circle cx="953.4" cy="135.2" r="2" fill="#9a76ce"/><circle cx="957.8" cy="135.2" r="2" fill="#9a76ce"/><circle cx="962.2" cy="135.2" r="2" fill="#9a76ce"/><circle cx="966.6" cy="135.2" r="2" fill="#9a76ce"/><circle cx="971.0" cy="144.4" r="2" fill="#9a76ce"/><circle cx="975.4" cy="144.4" r="2" fill="#9a76ce"/><circle cx="979.8" cy="144.4" r="2" fill="#9a76ce"/><circle cx="984.2" cy="153.7" r="2" fill="#9a76ce"/><circle cx="988.6" cy="153.7" r="2" fill="#9a76ce"/><circle cx="993.0" cy="153.7" r="2" fill="#9a76ce"/><circle cx="997.4" cy="153.7" r="2" fill="#9a76ce"/><circle cx="1001.8" cy="162.9" r="2" fill="#9a76ce"/><circle cx="1006.2" cy="162.9" r="2" fill="#9a76ce"/><circle cx="1010.6" cy="162.9" r="2" fill="#9a76ce"/><circle cx="1015.0" cy="162.9" r="2" fill="#9a76ce"/><circle cx="1019.4" cy="172.1" r="2" fill="#9a76ce"/><circle cx="1023.8" cy="172.1" r="2" fill="#9a76ce"/><circle cx="1028.2" cy="172.1" r="2" fill="#9a76ce"/><circle cx="1032.6" cy="181.3" r="2" fill="#9a76ce"/><circle cx="1037.0" cy="181.3" r="2" fill="#9a76ce"/><circle cx="1041.4" cy="181.3" r="2" fill="#9a76ce"/><circle cx="1045.8" cy="181.3" r="2" fill="#9a76ce"/><circle cx="1050.2" cy="190.6" r="2" fill="#9a76ce"/><circle cx="1054.6" cy="190.6" r="2" fill="#9a76ce"/><circle cx="1059.0" cy="190.6" r="2" fill="#9a76ce"/><circle cx="1063.4" cy="190.6" r="2" fill="#9a76ce"/><circle cx="1067.8" cy="199.8" r="2" fill="#9a76ce"/><circle cx="1072.3" cy="199.8" r="2" fill="#9a76ce"/><circle cx="1076.7" cy="199.8" r="2" fill="#9a76ce"/><circle cx="1081.1" cy="209.0" r="2" fill="#9a76ce"/><circle cx="1085.5" cy="209.0" r="2" fill="#9a76ce"/><circle cx="1089.9" cy="209.0" r="2" fill="#9a76ce"/><circle cx="1094.3" cy="209.0" r="2" fill="#9a76ce"/><circle cx="1098.7" cy="218.2" r="2" fill="#9a76ce"/><circle cx="1103.1" cy="218.2" r="2" fill="#9a76ce"/><circle cx="1107.5" cy="218.2" r="2" fill="#9a76ce"/><circle cx="1111.9" cy="218.2" r="2" fill="#9a76ce"/><circle cx="1116.3" cy="227.4" r="2" fill="#9a76ce"/><circle cx="1120.7" cy="227.4" r="2" fill="#9a76ce"/><circle cx="1125.1" cy="227.4" r="2" fill="#9a76ce"/><circle cx="1129.5" cy="236.7" r="2" fill="#9a76ce"/><circle cx="1133.9" cy="236.7" r="2" fill="#9a76ce"/><circle cx="1138.3" cy="236.7" r="2" fill="#9a76ce"/><circle cx="1142.7" cy="236.7" r="2" fill="#9a76ce"/><circle cx="1147.1" cy="245.9" r="2" fill="#9a76ce"/><circle cx="1151.5" cy="245.9" r="2" fill="#9a76ce"/><circle cx="1155.9" cy="245.9" r="2" fill="#9a76ce"/><circle cx="1160.3" cy="255.1" r="2" fill="#9a76ce"/><circle cx="1164.7" cy="255.1" r="2" fill="#9a76ce"/><circle cx="1169.1" cy="255.1" r="2" fill="#9a76ce"/><circle cx="1173.5" cy="255.1" r="2" fill="#9a76ce"/><circle cx="1177.9" cy="264.3" r="2" fill="#9a76ce"/><circle cx="1182.3" cy="264.3" r="2" fill="#9a76ce"/><circle cx="1186.8" cy="264.3" r="2" fill="#9a76ce"/><circle cx="1191.2" cy="264.3" r="2" fill="#9a76ce"/><circle cx="1195.6" cy="273.6" r="2" fill="#9a76ce"/><circle cx="1200.0" cy="273.6" r="2" fill="#9a76ce"/><circle cx="1204.4" cy="273.6" r="2" fill="#9a76ce"/><circle cx="1208.8" cy="282.8" r="2" fill="#9a76ce"/><circle cx="1213.2" cy="282.8" r="2" fill="#9a76ce"/><circle cx="1217.6" cy="282.8" r="2" fill="#9a76ce"/><circle cx="1222.0" cy="282.8" r="2" fill="#9a76ce"/><circle cx="1226.4" cy="292.0" r="2" fill="#9a76ce"/><circle cx="1230.8" cy="292.0" r="2" fill="#9a76ce"/><circle cx="1235.2" cy="292.0" r="2" fill="#9a76ce"/><circle cx="1239.6" cy="292.0" r="2" fill="#9a76ce"/><circle cx="1244.0" cy="301.2" r="2" fill="#9a76ce"/><text x="213.33333333333334" y="417" text-anchor="middle" font-family="'mIosevka-QP Web','Iosevka Web','JetBrains Mono',Menlo,monospace" font-size="17" fill="#444">mean token accuracy</text><rect x="78" y="426" width="312.6666666666667" height="214" fill="none" stroke="#d8d8d8" stroke-width="1"/><line x1="78" y1="640" x2="390.6666666666667" y2="640" stroke="#f0f0f0" stroke-width="1"/><text x="72" y="644" text-anchor="end" font-family="'mIosevka-QP Web','Iosevka Web','JetBrains Mono',Menlo,monospace" font-size="11" fill="#999">0.723</text><line x1="78" y1="586.4999999999999" x2="390.6666666666667" y2="586.4999999999999" stroke="#f0f0f0" stroke-width="1"/><text x="72" y="590.4999999999999" text-anchor="end" font-family="'mIosevka-QP Web','Iosevka Web','JetBrains Mono',Menlo,monospace" font-size="11" fill="#999">0.743</text><line x1="78" y1="533" x2="390.6666666666667" y2="533" stroke="#f0f0f0" stroke-width="1"/><text x="72" y="537" text-anchor="end" font-family="'mIosevka-QP Web','Iosevka Web','JetBrains Mono',Menlo,monospace" font-size="11" fill="#999">0.763</text><line x1="78" y1="479.5000000000001" x2="390.6666666666667" y2="479.5000000000001" stroke="#f0f0f0" stroke-width="1"/><text x="72" y="483.5000000000001" text-anchor="end" font-family="'mIosevka-QP Web','Iosevka Web','JetBrains Mono',Menlo,monospace" font-size="11" fill="#999">0.783</text><line x1="78" y1="426" x2="390.6666666666667" y2="426" stroke="#f0f0f0" stroke-width="1"/><text x="72" y="430" text-anchor="end" font-family="'mIosevka-QP Web','Iosevka Web','JetBrains Mono',Menlo,monospace" font-size="11" fill="#999">0.804</text><line x1="78" y1="640" x2="78" y2="644" stroke="#aaa" stroke-width="1"/><text x="78" y="657" text-anchor="middle" font-family="'mIosevka-QP Web','Iosevka Web','JetBrains Mono',Menlo,monospace" font-size="11" fill="#999">10</text><line x1="156.16666666666669" y1="640" x2="156.16666666666669" y2="644" stroke="#aaa" stroke-width="1"/><text x="156.16666666666669" y="657" text-anchor="middle" font-family="'mIosevka-QP Web','Iosevka Web','JetBrains Mono',Menlo,monospace" font-size="11" fill="#999">188</text><line x1="234.33333333333334" y1="640" x2="234.33333333333334" y2="644" stroke="#aaa" stroke-width="1"/><text x="234.33333333333334" y="657" text-anchor="middle" font-family="'mIosevka-QP Web','Iosevka Web','JetBrains Mono',Menlo,monospace" font-size="11" fill="#999">365</text><line x1="312.5" y1="640" x2="312.5" y2="644" stroke="#aaa" stroke-width="1"/><text x="312.5" y="657" text-anchor="middle" font-family="'mIosevka-QP Web','Iosevka Web','JetBrains Mono',Menlo,monospace" font-size="11" fill="#999">543</text><line x1="390.6666666666667" y1="640" x2="390.6666666666667" y2="644" stroke="#aaa" stroke-width="1"/><text x="390.6666666666667" y="657" text-anchor="middle" font-family="'mIosevka-QP Web','Iosevka Web','JetBrains Mono',Menlo,monospace" font-size="11" fill="#999">720</text><text x="234.33333333333334" y="669" text-anchor="middle" font-family="'mIosevka-QP Web','Iosevka Web','JetBrains Mono',Menlo,monospace" font-size="11" fill="#888">global step</text><path d="M78.0 625.2 L82.4 566.5 L86.8 547.3 L91.2 537.3 L95.6 529.3 L100.0 522.3 L104.4 517.5 L108.8 513.7 L113.2 511.3 L117.6 505.9 L122.0 526.3 L126.4 508.2 L130.8 501.2 L135.2 496.1 L139.7 495.3 L144.1 496.0 L148.5 492.7 L152.9 490.0 L157.3 487.5 L161.7 487.7 L166.1 494.7 L170.5 486.6 L174.9 483.8 L179.3 483.3 L183.7 474.6 L188.1 470.9 L192.5 470.4 L196.9 470.7 L201.3 469.8 L205.7 468.3 L210.1 478.6 L214.5 468.6 L218.9 465.7 L223.3 467.1 L227.7 467.3 L232.1 463.2 L236.5 464.3 L240.9 463.3 L245.3 463.7 L249.7 460.7 L254.2 463.8 L258.6 462.7 L263.0 464.0 L267.4 456.8 L271.8 458.7 L276.2 459.7 L280.6 458.0 L285.0 455.5 L289.4 453.2 L293.8 450.6 L298.2 452.2 L302.6 451.2 L307.0 448.2 L311.4 449.5 L315.8 451.7 L320.2 447.2 L324.6 444.9 L329.0 448.2 L333.4 445.9 L337.8 445.9 L342.2 447.7 L346.6 449.8 L351.0 449.3 L355.4 448.7 L359.8 443.7 L364.2 448.1 L368.6 445.7 L373.1 440.8 L377.5 445.1 L381.9 443.0 L386.3 446.0 L390.7 447.2" fill="none" stroke="#1da811" stroke-width="2"/><circle cx="78.0" cy="625.2" r="2" fill="#1da811"/><circle cx="82.4" cy="566.5" r="2" fill="#1da811"/><circle cx="86.8" cy="547.3" r="2" fill="#1da811"/><circle cx="91.2" cy="537.3" r="2" fill="#1da811"/><circle cx="95.6" cy="529.3" r="2" fill="#1da811"/><circle cx="100.0" cy="522.3" r="2" fill="#1da811"/><circle cx="104.4" cy="517.5" r="2" fill="#1da811"/><circle cx="108.8" cy="513.7" r="2" fill="#1da811"/><circle cx="113.2" cy="511.3" r="2" fill="#1da811"/><circle cx="117.6" cy="505.9" r="2" fill="#1da811"/><circle cx="122.0" cy="526.3" r="2" fill="#1da811"/><circle cx="126.4" cy="508.2" r="2" fill="#1da811"/><circle cx="130.8" cy="501.2" r="2" fill="#1da811"/><circle cx="135.2" cy="496.1" r="2" fill="#1da811"/><circle cx="139.7" cy="495.3" r="2" fill="#1da811"/><circle cx="144.1" cy="496.0" r="2" fill="#1da811"/><circle cx="148.5" cy="492.7" r="2" fill="#1da811"/><circle cx="152.9" cy="490.0" r="2" fill="#1da811"/><circle cx="157.3" cy="487.5" r="2" fill="#1da811"/><circle cx="161.7" cy="487.7" r="2" fill="#1da811"/><circle cx="166.1" cy="494.7" r="2" fill="#1da811"/><circle cx="170.5" cy="486.6" r="2" fill="#1da811"/><circle cx="174.9" cy="483.8" r="2" fill="#1da811"/><circle cx="179.3" cy="483.3" r="2" fill="#1da811"/><circle cx="183.7" cy="474.6" r="2" fill="#1da811"/><circle cx="188.1" cy="470.9" r="2" fill="#1da811"/><circle cx="192.5" cy="470.4" r="2" fill="#1da811"/><circle cx="196.9" cy="470.7" r="2" fill="#1da811"/><circle cx="201.3" cy="469.8" r="2" fill="#1da811"/><circle cx="205.7" cy="468.3" r="2" fill="#1da811"/><circle cx="210.1" cy="478.6" r="2" fill="#1da811"/><circle cx="214.5" cy="468.6" r="2" fill="#1da811"/><circle cx="218.9" cy="465.7" r="2" fill="#1da811"/><circle cx="223.3" cy="467.1" r="2" fill="#1da811"/><circle cx="227.7" cy="467.3" r="2" fill="#1da811"/><circle cx="232.1" cy="463.2" r="2" fill="#1da811"/><circle cx="236.5" cy="464.3" r="2" fill="#1da811"/><circle cx="240.9" cy="463.3" r="2" fill="#1da811"/><circle cx="245.3" cy="463.7" r="2" fill="#1da811"/><circle cx="249.7" cy="460.7" r="2" fill="#1da811"/><circle cx="254.2" cy="463.8" r="2" fill="#1da811"/><circle cx="258.6" cy="462.7" r="2" fill="#1da811"/><circle cx="263.0" cy="464.0" r="2" fill="#1da811"/><circle cx="267.4" cy="456.8" r="2" fill="#1da811"/><circle cx="271.8" cy="458.7" r="2" fill="#1da811"/><circle cx="276.2" cy="459.7" r="2" fill="#1da811"/><circle cx="280.6" cy="458.0" r="2" fill="#1da811"/><circle cx="285.0" cy="455.5" r="2" fill="#1da811"/><circle cx="289.4" cy="453.2" r="2" fill="#1da811"/><circle cx="293.8" cy="450.6" r="2" fill="#1da811"/><circle cx="298.2" cy="452.2" r="2" fill="#1da811"/><circle cx="302.6" cy="451.2" r="2" fill="#1da811"/><circle cx="307.0" cy="448.2" r="2" fill="#1da811"/><circle cx="311.4" cy="449.5" r="2" fill="#1da811"/><circle cx="315.8" cy="451.7" r="2" fill="#1da811"/><circle cx="320.2" cy="447.2" r="2" fill="#1da811"/><circle cx="324.6" cy="444.9" r="2" fill="#1da811"/><circle cx="329.0" cy="448.2" r="2" fill="#1da811"/><circle cx="333.4" cy="445.9" r="2" fill="#1da811"/><circle cx="337.8" cy="445.9" r="2" fill="#1da811"/><circle cx="342.2" cy="447.7" r="2" fill="#1da811"/><circle cx="346.6" cy="449.8" r="2" fill="#1da811"/><circle cx="351.0" cy="449.3" r="2" fill="#1da811"/><circle cx="355.4" cy="448.7" r="2" fill="#1da811"/><circle cx="359.8" cy="443.7" r="2" fill="#1da811"/><circle cx="364.2" cy="448.1" r="2" fill="#1da811"/><circle cx="368.6" cy="445.7" r="2" fill="#1da811"/><circle cx="373.1" cy="440.8" r="2" fill="#1da811"/><circle cx="377.5" cy="445.1" r="2" fill="#1da811"/><circle cx="381.9" cy="443.0" r="2" fill="#1da811"/><circle cx="386.3" cy="446.0" r="2" fill="#1da811"/><circle cx="390.7" cy="447.2" r="2" fill="#1da811"/><text x="640" y="417" text-anchor="middle" font-family="'mIosevka-QP Web','Iosevka Web','JetBrains Mono',Menlo,monospace" font-size="17" fill="#444">entropy (nats)</text><rect x="504.6666666666667" y="426" width="312.6666666666667" height="214" fill="none" stroke="#d8d8d8" stroke-width="1"/><line x1="504.6666666666667" y1="640" x2="817.3333333333334" y2="640" stroke="#f0f0f0" stroke-width="1"/><text x="498.6666666666667" y="644" text-anchor="end" font-family="'mIosevka-QP Web','Iosevka Web','JetBrains Mono',Menlo,monospace" font-size="11" fill="#999">0.735</text><line x1="504.6666666666667" y1="586.5" x2="817.3333333333334" y2="586.5" stroke="#f0f0f0" stroke-width="1"/><text x="498.6666666666667" y="590.5" text-anchor="end" font-family="'mIosevka-QP Web','Iosevka Web','JetBrains Mono',Menlo,monospace" font-size="11" fill="#999">0.849</text><line x1="504.6666666666667" y1="533" x2="817.3333333333334" y2="533" stroke="#f0f0f0" stroke-width="1"/><text x="498.6666666666667" y="537" text-anchor="end" font-family="'mIosevka-QP Web','Iosevka Web','JetBrains Mono',Menlo,monospace" font-size="11" fill="#999">0.963</text><line x1="504.6666666666667" y1="479.49999999999994" x2="817.3333333333334" y2="479.49999999999994" stroke="#f0f0f0" stroke-width="1"/><text x="498.6666666666667" y="483.49999999999994" text-anchor="end" font-family="'mIosevka-QP Web','Iosevka Web','JetBrains Mono',Menlo,monospace" font-size="11" fill="#999">1.077</text><line x1="504.6666666666667" y1="426" x2="817.3333333333334" y2="426" stroke="#f0f0f0" stroke-width="1"/><text x="498.6666666666667" y="430" text-anchor="end" font-family="'mIosevka-QP Web','Iosevka Web','JetBrains Mono',Menlo,monospace" font-size="11" fill="#999">1.191</text><line x1="504.6666666666667" y1="640" x2="504.6666666666667" y2="644" stroke="#aaa" stroke-width="1"/><text x="504.6666666666667" y="657" text-anchor="middle" font-family="'mIosevka-QP Web','Iosevka Web','JetBrains Mono',Menlo,monospace" font-size="11" fill="#999">10</text><line x1="582.8333333333334" y1="640" x2="582.8333333333334" y2="644" stroke="#aaa" stroke-width="1"/><text x="582.8333333333334" y="657" text-anchor="middle" font-family="'mIosevka-QP Web','Iosevka Web','JetBrains Mono',Menlo,monospace" font-size="11" fill="#999">188</text><line x1="661" y1="640" x2="661" y2="644" stroke="#aaa" stroke-width="1"/><text x="661" y="657" text-anchor="middle" font-family="'mIosevka-QP Web','Iosevka Web','JetBrains Mono',Menlo,monospace" font-size="11" fill="#999">365</text><line x1="739.1666666666667" y1="640" x2="739.1666666666667" y2="644" stroke="#aaa" stroke-width="1"/><text x="739.1666666666667" y="657" text-anchor="middle" font-family="'mIosevka-QP Web','Iosevka Web','JetBrains Mono',Menlo,monospace" font-size="11" fill="#999">543</text><line x1="817.3333333333334" y1="640" x2="817.3333333333334" y2="644" stroke="#aaa" stroke-width="1"/><text x="817.3333333333334" y="657" text-anchor="middle" font-family="'mIosevka-QP Web','Iosevka Web','JetBrains Mono',Menlo,monospace" font-size="11" fill="#999">720</text><text x="661" y="669" text-anchor="middle" font-family="'mIosevka-QP Web','Iosevka Web','JetBrains Mono',Menlo,monospace" font-size="11" fill="#888">global step</text><path d="M504.7 440.8 L509.1 517.0 L513.5 532.9 L517.9 542.9 L522.3 552.1 L526.7 559.4 L531.1 563.2 L535.5 566.1 L539.9 567.3 L544.3 572.6 L548.7 557.3 L553.1 572.7 L557.5 577.5 L561.9 581.9 L566.3 581.7 L570.7 581.0 L575.1 583.7 L579.5 586.8 L583.9 588.3 L588.3 587.8 L592.7 587.6 L597.1 590.5 L601.5 592.1 L606.0 592.1 L610.4 597.9 L614.8 601.8 L619.2 602.4 L623.6 602.4 L628.0 602.6 L632.4 603.7 L636.8 596.4 L641.2 606.1 L645.6 606.8 L650.0 605.4 L654.4 605.0 L658.8 608.7 L663.2 607.5 L667.6 608.4 L672.0 608.2 L676.4 610.6 L680.8 608.7 L685.2 609.0 L689.6 607.4 L694.0 614.3 L698.4 611.6 L702.8 611.1 L707.2 612.3 L711.6 614.4 L716.0 615.1 L720.5 618.0 L724.9 616.3 L729.3 617.6 L733.7 619.6 L738.1 618.9 L742.5 616.8 L746.9 620.5 L751.3 622.0 L755.7 620.2 L760.1 621.8 L764.5 622.5 L768.9 620.9 L773.3 618.6 L777.7 618.4 L782.1 618.6 L786.5 623.8 L790.9 620.0 L795.3 621.2 L799.7 625.2 L804.1 622.5 L808.5 624.5 L812.9 621.6 L817.3 620.3" fill="none" stroke="#e05560" stroke-width="2"/><circle cx="504.7" cy="440.8" r="2" fill="#e05560"/><circle cx="509.1" cy="517.0" r="2" fill="#e05560"/><circle cx="513.5" cy="532.9" r="2" fill="#e05560"/><circle cx="517.9" cy="542.9" r="2" fill="#e05560"/><circle cx="522.3" cy="552.1" r="2" fill="#e05560"/><circle cx="526.7" cy="559.4" r="2" fill="#e05560"/><circle cx="531.1" cy="563.2" r="2" fill="#e05560"/><circle cx="535.5" cy="566.1" r="2" fill="#e05560"/><circle cx="539.9" cy="567.3" r="2" fill="#e05560"/><circle cx="544.3" cy="572.6" r="2" fill="#e05560"/><circle cx="548.7" cy="557.3" r="2" fill="#e05560"/><circle cx="553.1" cy="572.7" r="2" fill="#e05560"/><circle cx="557.5" cy="577.5" r="2" fill="#e05560"/><circle cx="561.9" cy="581.9" r="2" fill="#e05560"/><circle cx="566.3" cy="581.7" r="2" fill="#e05560"/><circle cx="570.7" cy="581.0" r="2" fill="#e05560"/><circle cx="575.1" cy="583.7" r="2" fill="#e05560"/><circle cx="579.5" cy="586.8" r="2" fill="#e05560"/><circle cx="583.9" cy="588.3" r="2" fill="#e05560"/><circle cx="588.3" cy="587.8" r="2" fill="#e05560"/><circle cx="592.7" cy="587.6" r="2" fill="#e05560"/><circle cx="597.1" cy="590.5" r="2" fill="#e05560"/><circle cx="601.5" cy="592.1" r="2" fill="#e05560"/><circle cx="606.0" cy="592.1" r="2" fill="#e05560"/><circle cx="610.4" cy="597.9" r="2" fill="#e05560"/><circle cx="614.8" cy="601.8" r="2" fill="#e05560"/><circle cx="619.2" cy="602.4" r="2" fill="#e05560"/><circle cx="623.6" cy="602.4" r="2" fill="#e05560"/><circle cx="628.0" cy="602.6" r="2" fill="#e05560"/><circle cx="632.4" cy="603.7" r="2" fill="#e05560"/><circle cx="636.8" cy="596.4" r="2" fill="#e05560"/><circle cx="641.2" cy="606.1" r="2" fill="#e05560"/><circle cx="645.6" cy="606.8" r="2" fill="#e05560"/><circle cx="650.0" cy="605.4" r="2" fill="#e05560"/><circle cx="654.4" cy="605.0" r="2" fill="#e05560"/><circle cx="658.8" cy="608.7" r="2" fill="#e05560"/><circle cx="663.2" cy="607.5" r="2" fill="#e05560"/><circle cx="667.6" cy="608.4" r="2" fill="#e05560"/><circle cx="672.0" cy="608.2" r="2" fill="#e05560"/><circle cx="676.4" cy="610.6" r="2" fill="#e05560"/><circle cx="680.8" cy="608.7" r="2" fill="#e05560"/><circle cx="685.2" cy="609.0" r="2" fill="#e05560"/><circle cx="689.6" cy="607.4" r="2" fill="#e05560"/><circle cx="694.0" cy="614.3" r="2" fill="#e05560"/><circle cx="698.4" cy="611.6" r="2" fill="#e05560"/><circle cx="702.8" cy="611.1" r="2" fill="#e05560"/><circle cx="707.2" cy="612.3" r="2" fill="#e05560"/><circle cx="711.6" cy="614.4" r="2" fill="#e05560"/><circle cx="716.0" cy="615.1" r="2" fill="#e05560"/><circle cx="720.5" cy="618.0" r="2" fill="#e05560"/><circle cx="724.9" cy="616.3" r="2" fill="#e05560"/><circle cx="729.3" cy="617.6" r="2" fill="#e05560"/><circle cx="733.7" cy="619.6" r="2" fill="#e05560"/><circle cx="738.1" cy="618.9" r="2" fill="#e05560"/><circle cx="742.5" cy="616.8" r="2" fill="#e05560"/><circle cx="746.9" cy="620.5" r="2" fill="#e05560"/><circle cx="751.3" cy="622.0" r="2" fill="#e05560"/><circle cx="755.7" cy="620.2" r="2" fill="#e05560"/><circle cx="760.1" cy="621.8" r="2" fill="#e05560"/><circle cx="764.5" cy="622.5" r="2" fill="#e05560"/><circle cx="768.9" cy="620.9" r="2" fill="#e05560"/><circle cx="773.3" cy="618.6" r="2" fill="#e05560"/><circle cx="777.7" cy="618.4" r="2" fill="#e05560"/><circle cx="782.1" cy="618.6" r="2" fill="#e05560"/><circle cx="786.5" cy="623.8" r="2" fill="#e05560"/><circle cx="790.9" cy="620.0" r="2" fill="#e05560"/><circle cx="795.3" cy="621.2" r="2" fill="#e05560"/><circle cx="799.7" cy="625.2" r="2" fill="#e05560"/><circle cx="804.1" cy="622.5" r="2" fill="#e05560"/><circle cx="808.5" cy="624.5" r="2" fill="#e05560"/><circle cx="812.9" cy="621.6" r="2" fill="#e05560"/><circle cx="817.3" cy="620.3" r="2" fill="#e05560"/><text x="1066.6666666666667" y="417" text-anchor="middle" font-family="'mIosevka-QP Web','Iosevka Web','JetBrains Mono',Menlo,monospace" font-size="17" fill="#444">tokens seen (cumulative, B)</text><rect x="931.3333333333334" y="426" width="312.6666666666667" height="214" fill="none" stroke="#d8d8d8" stroke-width="1"/><line x1="931.3333333333334" y1="640" x2="1244" y2="640" stroke="#f0f0f0" stroke-width="1"/><text x="925.3333333333334" y="644" text-anchor="end" font-family="'mIosevka-QP Web','Iosevka Web','JetBrains Mono',Menlo,monospace" font-size="11" fill="#999">-0.292</text><line x1="931.3333333333334" y1="586.5" x2="1244" y2="586.5" stroke="#f0f0f0" stroke-width="1"/><text x="925.3333333333334" y="590.5" text-anchor="end" font-family="'mIosevka-QP Web','Iosevka Web','JetBrains Mono',Menlo,monospace" font-size="11" fill="#999">0.993</text><line x1="931.3333333333334" y1="533" x2="1244" y2="533" stroke="#f0f0f0" stroke-width="1"/><text x="925.3333333333334" y="537" text-anchor="end" font-family="'mIosevka-QP Web','Iosevka Web','JetBrains Mono',Menlo,monospace" font-size="11" fill="#999">2.278</text><line x1="931.3333333333334" y1="479.5" x2="1244" y2="479.5" stroke="#f0f0f0" stroke-width="1"/><text x="925.3333333333334" y="483.5" text-anchor="end" font-family="'mIosevka-QP Web','Iosevka Web','JetBrains Mono',Menlo,monospace" font-size="11" fill="#999">3.562</text><line x1="931.3333333333334" y1="426" x2="1244" y2="426" stroke="#f0f0f0" stroke-width="1"/><text x="925.3333333333334" y="430" text-anchor="end" font-family="'mIosevka-QP Web','Iosevka Web','JetBrains Mono',Menlo,monospace" font-size="11" fill="#999">4.847</text><line x1="931.3333333333334" y1="640" x2="931.3333333333334" y2="644" stroke="#aaa" stroke-width="1"/><text x="931.3333333333334" y="657" text-anchor="middle" font-family="'mIosevka-QP Web','Iosevka Web','JetBrains Mono',Menlo,monospace" font-size="11" fill="#999">10</text><line x1="1009.5" y1="640" x2="1009.5" y2="644" stroke="#aaa" stroke-width="1"/><text x="1009.5" y="657" text-anchor="middle" font-family="'mIosevka-QP Web','Iosevka Web','JetBrains Mono',Menlo,monospace" font-size="11" fill="#999">188</text><line x1="1087.6666666666667" y1="640" x2="1087.6666666666667" y2="644" stroke="#aaa" stroke-width="1"/><text x="1087.6666666666667" y="657" text-anchor="middle" font-family="'mIosevka-QP Web','Iosevka Web','JetBrains Mono',Menlo,monospace" font-size="11" fill="#999">365</text><line x1="1165.8333333333335" y1="640" x2="1165.8333333333335" y2="644" stroke="#aaa" stroke-width="1"/><text x="1165.8333333333335" y="657" text-anchor="middle" font-family="'mIosevka-QP Web','Iosevka Web','JetBrains Mono',Menlo,monospace" font-size="11" fill="#999">543</text><line x1="1244" y1="640" x2="1244" y2="644" stroke="#aaa" stroke-width="1"/><text x="1244" y="657" text-anchor="middle" font-family="'mIosevka-QP Web','Iosevka Web','JetBrains Mono',Menlo,monospace" font-size="11" fill="#999">720</text><text x="1087.6666666666667" y="669" text-anchor="middle" font-family="'mIosevka-QP Web','Iosevka Web','JetBrains Mono',Menlo,monospace" font-size="11" fill="#888">global step</text><path d="M931.3 625.2 L935.7 622.6 L940.1 620.0 L944.5 617.4 L948.9 614.8 L953.4 612.2 L957.8 609.7 L962.2 607.1 L966.6 604.5 L971.0 601.9 L975.4 599.3 L979.8 596.7 L984.2 594.1 L988.6 591.5 L993.0 588.9 L997.4 586.3 L1001.8 583.7 L1006.2 581.1 L1010.6 578.5 L1015.0 575.9 L1019.4 573.3 L1023.8 570.7 L1028.2 568.1 L1032.6 565.5 L1037.0 562.9 L1041.4 560.3 L1045.8 557.7 L1050.2 555.1 L1054.6 552.5 L1059.0 549.9 L1063.4 547.3 L1067.8 544.7 L1072.3 542.1 L1076.7 539.5 L1081.1 536.9 L1085.5 534.3 L1089.9 531.7 L1094.3 529.1 L1098.7 526.5 L1103.1 523.9 L1107.5 521.3 L1111.9 518.7 L1116.3 516.1 L1120.7 513.5 L1125.1 510.9 L1129.5 508.3 L1133.9 505.7 L1138.3 503.1 L1142.7 500.5 L1147.1 497.9 L1151.5 495.3 L1155.9 492.7 L1160.3 490.1 L1164.7 487.5 L1169.1 484.9 L1173.5 482.3 L1177.9 479.7 L1182.3 477.1 L1186.8 474.5 L1191.2 471.9 L1195.6 469.3 L1200.0 466.7 L1204.4 464.1 L1208.8 461.5 L1213.2 458.9 L1217.6 456.3 L1222.0 453.8 L1226.4 451.2 L1230.8 448.6 L1235.2 446.0 L1239.6 443.4 L1244.0 440.8" fill="none" stroke="#06b6d4" stroke-width="2"/><circle cx="931.3" cy="625.2" r="2" fill="#06b6d4"/><circle cx="935.7" cy="622.6" r="2" fill="#06b6d4"/><circle cx="940.1" cy="620.0" r="2" fill="#06b6d4"/><circle cx="944.5" cy="617.4" r="2" fill="#06b6d4"/><circle cx="948.9" cy="614.8" r="2" fill="#06b6d4"/><circle cx="953.4" cy="612.2" r="2" fill="#06b6d4"/><circle cx="957.8" cy="609.7" r="2" fill="#06b6d4"/><circle cx="962.2" cy="607.1" r="2" fill="#06b6d4"/><circle cx="966.6" cy="604.5" r="2" fill="#06b6d4"/><circle cx="971.0" cy="601.9" r="2" fill="#06b6d4"/><circle cx="975.4" cy="599.3" r="2" fill="#06b6d4"/><circle cx="979.8" cy="596.7" r="2" fill="#06b6d4"/><circle cx="984.2" cy="594.1" r="2" fill="#06b6d4"/><circle cx="988.6" cy="591.5" r="2" fill="#06b6d4"/><circle cx="993.0" cy="588.9" r="2" fill="#06b6d4"/><circle cx="997.4" cy="586.3" r="2" fill="#06b6d4"/><circle cx="1001.8" cy="583.7" r="2" fill="#06b6d4"/><circle cx="1006.2" cy="581.1" r="2" fill="#06b6d4"/><circle cx="1010.6" cy="578.5" r="2" fill="#06b6d4"/><circle cx="1015.0" cy="575.9" r="2" fill="#06b6d4"/><circle cx="1019.4" cy="573.3" r="2" fill="#06b6d4"/><circle cx="1023.8" cy="570.7" r="2" fill="#06b6d4"/><circle cx="1028.2" cy="568.1" r="2" fill="#06b6d4"/><circle cx="1032.6" cy="565.5" r="2" fill="#06b6d4"/><circle cx="1037.0" cy="562.9" r="2" fill="#06b6d4"/><circle cx="1041.4" cy="560.3" r="2" fill="#06b6d4"/><circle cx="1045.8" cy="557.7" r="2" fill="#06b6d4"/><circle cx="1050.2" cy="555.1" r="2" fill="#06b6d4"/><circle cx="1054.6" cy="552.5" r="2" fill="#06b6d4"/><circle cx="1059.0" cy="549.9" r="2" fill="#06b6d4"/><circle cx="1063.4" cy="547.3" r="2" fill="#06b6d4"/><circle cx="1067.8" cy="544.7" r="2" fill="#06b6d4"/><circle cx="1072.3" cy="542.1" r="2" fill="#06b6d4"/><circle cx="1076.7" cy="539.5" r="2" fill="#06b6d4"/><circle cx="1081.1" cy="536.9" r="2" fill="#06b6d4"/><circle cx="1085.5" cy="534.3" r="2" fill="#06b6d4"/><circle cx="1089.9" cy="531.7" r="2" fill="#06b6d4"/><circle cx="1094.3" cy="529.1" r="2" fill="#06b6d4"/><circle cx="1098.7" cy="526.5" r="2" fill="#06b6d4"/><circle cx="1103.1" cy="523.9" r="2" fill="#06b6d4"/><circle cx="1107.5" cy="521.3" r="2" fill="#06b6d4"/><circle cx="1111.9" cy="518.7" r="2" fill="#06b6d4"/><circle cx="1116.3" cy="516.1" r="2" fill="#06b6d4"/><circle cx="1120.7" cy="513.5" r="2" fill="#06b6d4"/><circle cx="1125.1" cy="510.9" r="2" fill="#06b6d4"/><circle cx="1129.5" cy="508.3" r="2" fill="#06b6d4"/><circle cx="1133.9" cy="505.7" r="2" fill="#06b6d4"/><circle cx="1138.3" cy="503.1" r="2" fill="#06b6d4"/><circle cx="1142.7" cy="500.5" r="2" fill="#06b6d4"/><circle cx="1147.1" cy="497.9" r="2" fill="#06b6d4"/><circle cx="1151.5" cy="495.3" r="2" fill="#06b6d4"/><circle cx="1155.9" cy="492.7" r="2" fill="#06b6d4"/><circle cx="1160.3" cy="490.1" r="2" fill="#06b6d4"/><circle cx="1164.7" cy="487.5" r="2" fill="#06b6d4"/><circle cx="1169.1" cy="484.9" r="2" fill="#06b6d4"/><circle cx="1173.5" cy="482.3" r="2" fill="#06b6d4"/><circle cx="1177.9" cy="479.7" r="2" fill="#06b6d4"/><circle cx="1182.3" cy="477.1" r="2" fill="#06b6d4"/><circle cx="1186.8" cy="474.5" r="2" fill="#06b6d4"/><circle cx="1191.2" cy="471.9" r="2" fill="#06b6d4"/><circle cx="1195.6" cy="469.3" r="2" fill="#06b6d4"/><circle cx="1200.0" cy="466.7" r="2" fill="#06b6d4"/><circle cx="1204.4" cy="464.1" r="2" fill="#06b6d4"/><circle cx="1208.8" cy="461.5" r="2" fill="#06b6d4"/><circle cx="1213.2" cy="458.9" r="2" fill="#06b6d4"/><circle cx="1217.6" cy="456.3" r="2" fill="#06b6d4"/><circle cx="1222.0" cy="453.8" r="2" fill="#06b6d4"/><circle cx="1226.4" cy="451.2" r="2" fill="#06b6d4"/><circle cx="1230.8" cy="448.6" r="2" fill="#06b6d4"/><circle cx="1235.2" cy="446.0" r="2" fill="#06b6d4"/><circle cx="1239.6" cy="443.4" r="2" fill="#06b6d4"/><circle cx="1244.0" cy="440.8" r="2" fill="#06b6d4"/>
</svg>
