<svg xmlns="http://www.w3.org/2000/svg" width="232" height="192" class="svgbob">
  <style>.svgbob line, .svgbob path, .svgbob circle, .svgbob rect, .svgbob polygon {
  stroke: #838383;
  stroke-width: 2;
  stroke-opacity: 1;
  fill-opacity: 1;
  stroke-linecap: round;
  stroke-linejoin: miter;
}

.svgbob text {
  white-space: pre;
  fill: #838383;
  font-family: Iosevka Fixed, monospace;
  font-size: 14px;
}

.svgbob rect.backdrop {
  stroke: none;
  fill: rgba(0,0,0,0.0);
}

.svgbob .broken {
  stroke-dasharray: 8;
}

.svgbob .filled {
  fill: #838383;
}

.svgbob .bg_filled {
  fill: rgba(0,0,0,0.0);
  stroke-width: 1;
}

.svgbob .nofill {
  fill: rgba(0,0,0,0.0);
}

.svgbob .end_marked_arrow {
  marker-end: url(#arrow);
}

.svgbob .start_marked_arrow {
  marker-start: url(#arrow);
}

.svgbob .end_marked_diamond {
  marker-end: url(#diamond);
}

.svgbob .start_marked_diamond {
  marker-start: url(#diamond);
}

.svgbob .end_marked_circle {
  marker-end: url(#circle);
}

.svgbob .start_marked_circle {
  marker-start: url(#circle);
}

.svgbob .end_marked_open_circle {
  marker-end: url(#open_circle);
}

.svgbob .start_marked_open_circle {
  marker-start: url(#open_circle);
}

.svgbob .end_marked_big_open_circle {
  marker-end: url(#big_open_circle);
}

.svgbob .start_marked_big_open_circle {
  marker-start: url(#big_open_circle);
}

</style>
  <defs>
    <marker id="arrow" viewBox="-2 -2 8 8" refX="4" refY="2" markerWidth="7" markerHeight="7" orient="auto-start-reverse">
      <polygon points="0,0 0,4 4,2 0,0"></polygon>
    </marker>
    <marker id="diamond" viewBox="-2 -2 8 8" refX="4" refY="2" markerWidth="7" markerHeight="7" orient="auto-start-reverse">
      <polygon points="0,2 2,0 4,2 2,4 0,2"></polygon>
    </marker>
    <marker id="circle" viewBox="0 0 8 8" refX="4" refY="4" markerWidth="7" markerHeight="7" orient="auto-start-reverse">
      <circle cx="4" cy="4" r="2" class="filled"></circle>
    </marker>
    <marker id="open_circle" viewBox="0 0 8 8" refX="4" refY="4" markerWidth="7" markerHeight="7" orient="auto-start-reverse">
      <circle cx="4" cy="4" r="2" class="bg_filled"></circle>
    </marker>
    <marker id="big_open_circle" viewBox="0 0 8 8" refX="4" refY="4" markerWidth="7" markerHeight="7" orient="auto-start-reverse">
      <circle cx="4" cy="4" r="3" class="bg_filled"></circle>
    </marker>
  </defs>
  <rect class="backdrop" x="0" y="0" width="232" height="192"></rect>
  <rect x="108" y="56" width="16" height="16" class="solid nofill" rx="4"></rect>
  <rect x="140" y="56" width="16" height="16" class="solid nofill" rx="4"></rect>
  <rect x="172" y="56" width="16" height="16" class="solid nofill" rx="4"></rect>
  <polygon points="176,36 184,36 180,48" class="filled"></polygon>
  <polygon points="96,68 104,72 96,76" class="filled"></polygon>
  <line x1="120" y1="80" x2="130" y2="100" class="solid"></line>
  <line x1="176" y1="80" x2="166" y2="100" class="solid"></line>
  <polygon points="127,100 134,108 134,97" class="filled"></polygon>
  <polygon points="169,100 162,108 162,97" class="filled"></polygon>
  <polygon points="168,164 176,168 168,172" class="filled"></polygon>
  <g>
    <path d="M 184,8 A 4,4 0,0,0 180,12" class="nofill"></path>
    <line x1="180" y1="12" x2="180" y2="36" class="solid"></line>
    <line x1="184" y1="8" x2="200" y2="8" class="solid"></line>
    <path d="M 200,8 A 4,4 0,0,1 204,12" class="nofill"></path>
    <line x1="204" y1="12" x2="204" y2="128" class="solid"></line>
    <path d="M 80,72 A 4,4 0,0,0 76,76" class="nofill"></path>
    <line x1="76" y1="76" x2="76" y2="128" class="solid"></line>
    <line x1="80" y1="72" x2="96" y2="72" class="solid"></line>
    <line x1="148" y1="104" x2="136" y2="128" class="solid"></line>
    <line x1="148" y1="104" x2="160" y2="128" class="solid"></line>
    <line x1="76" y1="128" x2="136" y2="128" class="solid"></line>
    <line x1="160" y1="128" x2="204" y2="128" class="solid"></line>
    <line x1="136" y1="128" x2="148" y2="152" class="solid"></line>
    <line x1="160" y1="128" x2="148" y2="152" class="solid"></line>
    <line x1="148" y1="152" x2="148" y2="164" class="solid"></line>
    <path d="M 148,164 A 4,4 0,0,0 152,168" class="nofill"></path>
    <line x1="152" y1="168" x2="168" y2="168" class="solid"></line>
  </g>
  <g>
    <line x1="148" y1="80" x2="148" y2="100" class="solid"></line>
    <path d="M 148,100 A 16,16 0,0,1 146,108" class="nofill"></path>
    <path d="M 148,100 A 16,16 0,0,0 150,108" class="nofill"></path>
  </g>
  <g>
    <line x1="192" y1="160" x2="224" y2="160" class="solid"></line>
    <line x1="192" y1="160" x2="184" y2="176" class="solid"></line>
    <line x1="184" y1="176" x2="216" y2="176" class="solid"></line>
    <line x1="224" y1="160" x2="216" y2="176" class="solid"></line>
  </g>
</svg>
